<svg width="366" height="219" viewBox="0 0 366 219" fill="none" xmlns="http://www.w3.org/2000/svg">
<rect x="0.221054" y="0.422119" width="32.501" height="31.4853" rx="15.7427" fill="#738DED"/>
<path d="M14.0891 11.7645V10.4157H17.1442V22.1648H15.6491V11.7645H14.0891Z" fill="white"/>
<rect x="0.221054" y="47.1423" width="32.501" height="31.4853" rx="15.7427" fill="#738DED"/>
<path d="M12.3003 67.6987C13.6762 66.5937 14.7542 65.6891 15.5342 64.9849C16.3142 64.2699 16.9696 63.5278 17.5005 62.7586C18.0422 61.9785 18.313 61.2148 18.313 60.4673C18.313 59.7631 18.1397 59.2105 17.793 58.8097C17.4572 58.398 16.9101 58.1922 16.1517 58.1922C15.415 58.1922 14.8408 58.4251 14.4291 58.891C14.0283 59.346 13.8116 59.9581 13.7791 60.7273H12.3491C12.3924 59.5139 12.7608 58.5768 13.4541 57.9159C14.1475 57.2551 15.0412 56.9246 16.1354 56.9246C17.2513 56.9246 18.1343 57.2334 18.7843 57.8509C19.4451 58.4684 19.7756 59.3189 19.7756 60.4023C19.7756 61.3014 19.5047 62.179 18.963 63.0348C18.4322 63.8799 17.8255 64.6274 17.143 65.2774C16.4605 65.9166 15.5884 66.6641 14.5267 67.52H20.1168V68.755H12.3003V67.6987Z" fill="white"/>
<rect x="0.221054" y="93.8625" width="32.501" height="31.4853" rx="15.7427" fill="#738DED"/>
<path d="M12.4466 106.814C12.5224 105.817 12.907 105.037 13.6004 104.474C14.2937 103.91 15.1929 103.629 16.298 103.629C17.0346 103.629 17.6684 103.764 18.1993 104.035C18.7409 104.295 19.1472 104.652 19.4181 105.107C19.6997 105.562 19.8406 106.077 19.8406 106.651C19.8406 107.323 19.6456 107.902 19.2555 108.39C18.8764 108.878 18.378 109.192 17.7605 109.333V109.414C18.4647 109.587 19.0226 109.928 19.4343 110.438C19.846 110.947 20.0518 111.613 20.0518 112.436C20.0518 113.054 19.911 113.612 19.6293 114.11C19.3476 114.598 18.9251 114.982 18.3618 115.264C17.7984 115.546 17.1213 115.686 16.3305 115.686C15.1821 115.686 14.2396 115.389 13.5029 114.793C12.7662 114.186 12.3545 113.33 12.2678 112.225H13.6979C13.7737 112.875 14.0391 113.406 14.4941 113.818C14.9492 114.229 15.5558 114.435 16.3142 114.435C17.0726 114.435 17.6467 114.24 18.0368 113.85C18.4376 113.449 18.638 112.935 18.638 112.306C18.638 111.494 18.3672 110.909 17.8255 110.551C17.2838 110.194 16.4659 110.015 15.3717 110.015H14.9979V108.78H15.3879C16.3846 108.769 17.1376 108.607 17.6467 108.293C18.1559 107.967 18.4105 107.469 18.4105 106.797C18.4105 106.223 18.2209 105.763 17.8418 105.416C17.4734 105.069 16.9426 104.896 16.2492 104.896C15.5775 104.896 15.0358 105.069 14.6242 105.416C14.2125 105.763 13.9687 106.229 13.8929 106.814H12.4466Z" fill="white"/>
<rect x="0.221054" y="140.583" width="32.501" height="31.4853" rx="15.7427" fill="#738DED"/>
<path d="M11.6216 159.709V158.588L17.3255 150.69H19.0968V158.425H20.7219V159.709H19.0968V162.325H17.6343V159.709H11.6216ZM17.6993 152.234L13.3279 158.425H17.6993V152.234Z" fill="white"/>
<rect x="0.221054" y="187.303" width="32.501" height="31.4853" rx="15.7427" fill="#738DED"/>
<path d="M19.4706 198.58H13.7666V202.285C14.0158 201.939 14.3842 201.657 14.8717 201.44C15.3592 201.213 15.8846 201.099 16.448 201.099C17.3472 201.099 18.0784 201.289 18.6418 201.668C19.2051 202.036 19.606 202.518 19.8443 203.114C20.0935 203.699 20.2181 204.322 20.2181 204.983C20.2181 205.763 20.0718 206.462 19.7793 207.079C19.4868 207.697 19.0372 208.184 18.4305 208.542C17.8347 208.899 17.0926 209.078 16.2042 209.078C15.0667 209.078 14.1458 208.786 13.4416 208.201C12.7374 207.616 12.3095 206.836 12.1578 205.861H13.6041C13.745 206.478 14.0429 206.96 14.4979 207.307C14.9529 207.654 15.5271 207.827 16.2205 207.827C17.0763 207.827 17.7209 207.572 18.1543 207.063C18.5876 206.543 18.8043 205.861 18.8043 205.016C18.8043 204.171 18.5876 203.52 18.1543 203.065C17.7209 202.6 17.0817 202.367 16.2367 202.367C15.6625 202.367 15.1588 202.508 14.7254 202.789C14.3029 203.06 13.9941 203.434 13.7991 203.91H12.4016V197.28H19.4706V198.58Z" fill="white"/>
<path d="M16.4716 54.252L16.4716 31.9075" stroke="#738DED" stroke-width="2.03131"/>
<path d="M16.4716 100.972L16.4716 78.6277" stroke="#738DED" stroke-width="2.03131"/>
<path d="M16.4716 147.692L16.4716 125.348" stroke="#738DED" stroke-width="2.03131"/>
<path d="M16.4716 194.413L16.4716 172.068" stroke="#738DED" stroke-width="2.03131"/>
<path d="M47.1391 16.7985C47.1391 15.8662 47.3408 15.0369 47.7443 14.3108C48.1477 13.5757 48.708 13.0064 49.4252 12.603C50.1513 12.1906 50.9716 11.9844 51.886 11.9844C53.0066 11.9844 53.9659 12.2802 54.7637 12.8719C55.5616 13.4636 56.095 14.2704 56.364 15.2924H53.8359C53.6476 14.898 53.3787 14.5977 53.029 14.3915C52.6884 14.1853 52.2984 14.0822 51.8591 14.0822C51.1509 14.0822 50.5772 14.3287 50.1379 14.8218C49.6986 15.3149 49.479 15.9738 49.479 16.7985C49.479 17.6233 49.6986 18.2822 50.1379 18.7753C50.5772 19.2684 51.1509 19.5149 51.8591 19.5149C52.2984 19.5149 52.6884 19.4118 53.029 19.2056C53.3787 18.9994 53.6476 18.6991 53.8359 18.3046H56.364C56.095 19.3266 55.5616 20.1335 54.7637 20.7251C53.9659 21.3079 53.0066 21.5992 51.886 21.5992C50.9716 21.5992 50.1513 21.3975 49.4252 20.9941C48.708 20.5817 48.1477 20.0124 47.7443 19.2863C47.3408 18.5601 47.1391 17.7309 47.1391 16.7985ZM60.0716 15.279C60.3406 14.8666 60.6768 14.5439 61.0802 14.3108C61.4836 14.0687 61.9318 13.9477 62.4249 13.9477V16.3817H61.7929C61.2191 16.3817 60.7888 16.5072 60.502 16.7582C60.2151 17.0002 60.0716 17.4306 60.0716 18.0491V21.532H57.7722V14.0284H60.0716V15.279ZM70.5973 17.6592C70.5973 17.8743 70.5838 18.0984 70.557 18.3315H65.3529C65.3887 18.7977 65.5366 19.1563 65.7966 19.4073C66.0656 19.6494 66.3928 19.7704 66.7783 19.7704C67.352 19.7704 67.751 19.5283 67.9751 19.0442H70.4225C70.297 19.5373 70.0684 19.9811 69.7367 20.3755C69.4139 20.77 69.006 21.0793 68.513 21.3034C68.0199 21.5275 67.4686 21.6396 66.8589 21.6396C66.1238 21.6396 65.4694 21.4827 64.8956 21.1689C64.3219 20.8551 63.8736 20.4069 63.5509 19.8242C63.2282 19.2415 63.0668 18.5601 63.0668 17.7802C63.0668 17.0002 63.2237 16.3189 63.5375 15.7362C63.8602 15.1535 64.3084 14.7052 64.8822 14.3915C65.4559 14.0777 66.1149 13.9208 66.8589 13.9208C67.5851 13.9208 68.2306 14.0732 68.7954 14.378C69.3601 14.6828 69.7994 15.1176 70.1132 15.6824C70.4359 16.2472 70.5973 16.9061 70.5973 17.6592ZM68.244 17.054C68.244 16.6596 68.1095 16.3458 67.8406 16.1127C67.5717 15.8796 67.2355 15.7631 66.8321 15.7631C66.4466 15.7631 66.1193 15.8752 65.8504 16.0993C65.5904 16.3234 65.4291 16.6417 65.3663 17.054H68.244ZM71.3532 17.7667C71.3532 16.9958 71.4966 16.3189 71.7835 15.7362C72.0793 15.1535 72.4783 14.7052 72.9803 14.3915C73.4823 14.0777 74.0426 13.9208 74.6612 13.9208C75.1901 13.9208 75.6518 14.0284 76.0463 14.2436C76.4497 14.4587 76.759 14.7411 76.9741 15.0907V14.0284H79.2736V21.532H76.9741V20.4696C76.75 20.8193 76.4363 21.1017 76.0328 21.3168C75.6384 21.532 75.1767 21.6396 74.6478 21.6396C74.0382 21.6396 73.4823 21.4827 72.9803 21.1689C72.4783 20.8462 72.0793 20.3934 71.7835 19.8107C71.4966 19.219 71.3532 18.5377 71.3532 17.7667ZM76.9741 17.7802C76.9741 17.2064 76.8128 16.7537 76.49 16.422C76.1763 16.0903 75.7908 15.9245 75.3336 15.9245C74.8764 15.9245 74.4864 16.0903 74.1637 16.422C73.8499 16.7447 73.693 17.193 73.693 17.7667C73.693 18.3405 73.8499 18.7977 74.1637 19.1384C74.4864 19.4701 74.8764 19.6359 75.3336 19.6359C75.7908 19.6359 76.1763 19.4701 76.49 19.1384C76.8128 18.8067 76.9741 18.3539 76.9741 17.7802ZM85.1193 19.5821V21.532H83.9494C83.1157 21.532 82.4657 21.3303 81.9995 20.9269C81.5334 20.5145 81.3003 19.8466 81.3003 18.9232V15.9379H80.3859V14.0284H81.3003V12.1996H83.5998V14.0284H85.1059V15.9379H83.5998V18.9501C83.5998 19.1742 83.6536 19.3356 83.7611 19.4342C83.8687 19.5328 84.048 19.5821 84.299 19.5821H85.1193ZM93.4734 17.6592C93.4734 17.8743 93.46 18.0984 93.4331 18.3315H88.229C88.2649 18.7977 88.4128 19.1563 88.6728 19.4073C88.9417 19.6494 89.2689 19.7704 89.6544 19.7704C90.2282 19.7704 90.6271 19.5283 90.8512 19.0442H93.2986C93.1731 19.5373 92.9445 19.9811 92.6128 20.3755C92.2901 20.77 91.8822 21.0793 91.3891 21.3034C90.896 21.5275 90.3447 21.6396 89.7351 21.6396C89 21.6396 88.3455 21.4827 87.7718 21.1689C87.198 20.8551 86.7498 20.4069 86.4271 19.8242C86.1043 19.2415 85.943 18.5601 85.943 17.7802C85.943 17.0002 86.0998 16.3189 86.4136 15.7362C86.7363 15.1535 87.1846 14.7052 87.7583 14.3915C88.3321 14.0777 88.991 13.9208 89.7351 13.9208C90.4612 13.9208 91.1067 14.0732 91.6715 14.378C92.2363 14.6828 92.6756 15.1176 92.9893 15.6824C93.3121 16.2472 93.4734 16.9061 93.4734 17.6592ZM91.1202 17.054C91.1202 16.6596 90.9857 16.3458 90.7167 16.1127C90.4478 15.8796 90.1116 15.7631 89.7082 15.7631C89.3227 15.7631 88.9955 15.8752 88.7265 16.0993C88.4666 16.3234 88.3052 16.6417 88.2424 17.054H91.1202ZM97.079 17.7667C97.079 16.9958 97.2224 16.3189 97.5093 15.7362C97.8051 15.1535 98.2041 14.7052 98.7061 14.3915C99.2081 14.0777 99.7685 13.9208 100.387 13.9208C100.916 13.9208 101.378 14.0284 101.772 14.2436C102.176 14.4587 102.485 14.7411 102.7 15.0907V14.0284H104.999V21.532H102.7V20.4696C102.476 20.8193 102.162 21.1017 101.759 21.3168C101.364 21.532 100.903 21.6396 100.374 21.6396C99.764 21.6396 99.2081 21.4827 98.7061 21.1689C98.2041 20.8462 97.8051 20.3934 97.5093 19.8107C97.2224 19.219 97.079 18.5377 97.079 17.7667ZM102.7 17.7802C102.7 17.2064 102.539 16.7537 102.216 16.422C101.902 16.0903 101.517 15.9245 101.059 15.9245C100.602 15.9245 100.212 16.0903 99.8895 16.422C99.5757 16.7447 99.4188 17.193 99.4188 17.7667C99.4188 18.3405 99.5757 18.7977 99.8895 19.1384C100.212 19.4701 100.602 19.6359 101.059 19.6359C101.517 19.6359 101.902 19.4701 102.216 19.1384C102.539 18.8067 102.7 18.3539 102.7 17.7802ZM109.055 17.7667C109.055 16.9958 109.199 16.3189 109.486 15.7362C109.782 15.1535 110.181 14.7052 110.683 14.3915C111.185 14.0777 111.745 13.9208 112.364 13.9208C112.857 13.9208 113.305 14.0239 113.708 14.2301C114.121 14.4363 114.443 14.7142 114.676 15.0638V11.581H116.976V21.532H114.676V20.4562C114.461 20.8148 114.152 21.1017 113.749 21.3168C113.354 21.532 112.892 21.6396 112.364 21.6396C111.745 21.6396 111.185 21.4827 110.683 21.1689C110.181 20.8462 109.782 20.3934 109.486 19.8107C109.199 19.219 109.055 18.5377 109.055 17.7667ZM114.676 17.7802C114.676 17.2064 114.515 16.7537 114.192 16.422C113.879 16.0903 113.493 15.9245 113.036 15.9245C112.579 15.9245 112.189 16.0903 111.866 16.422C111.552 16.7447 111.395 17.193 111.395 17.7667C111.395 18.3405 111.552 18.7977 111.866 19.1384C112.189 19.4701 112.579 19.6359 113.036 19.6359C113.493 19.6359 113.879 19.4701 114.192 19.1384C114.515 18.8067 114.676 18.3539 114.676 17.7802ZM125.713 17.6592C125.713 17.8743 125.699 18.0984 125.672 18.3315H120.468C120.504 18.7977 120.652 19.1563 120.912 19.4073C121.181 19.6494 121.508 19.7704 121.894 19.7704C122.468 19.7704 122.866 19.5283 123.091 19.0442H125.538C125.412 19.5373 125.184 19.9811 124.852 20.3755C124.529 20.77 124.122 21.0793 123.628 21.3034C123.135 21.5275 122.584 21.6396 121.974 21.6396C121.239 21.6396 120.585 21.4827 120.011 21.1689C119.437 20.8551 118.989 20.4069 118.666 19.8242C118.344 19.2415 118.182 18.5601 118.182 17.7802C118.182 17.0002 118.339 16.3189 118.653 15.7362C118.976 15.1535 119.424 14.7052 119.998 14.3915C120.571 14.0777 121.23 13.9208 121.974 13.9208C122.701 13.9208 123.346 14.0732 123.911 14.378C124.476 14.6828 124.915 15.1176 125.229 15.6824C125.551 16.2472 125.713 16.9061 125.713 17.6592ZM123.36 17.054C123.36 16.6596 123.225 16.3458 122.956 16.1127C122.687 15.8796 122.351 15.7631 121.948 15.7631C121.562 15.7631 121.235 15.8752 120.966 16.0993C120.706 16.3234 120.545 16.6417 120.482 17.054H123.36ZM131.108 19.5821V21.532H129.938C129.104 21.532 128.454 21.3303 127.988 20.9269C127.522 20.5145 127.289 19.8466 127.289 18.9232V15.9379H126.375V14.0284H127.289V12.1996H129.588V14.0284H131.095V15.9379H129.588V18.9501C129.588 19.1742 129.642 19.3356 129.75 19.4342C129.857 19.5328 130.037 19.5821 130.288 19.5821H131.108ZM131.932 17.7667C131.932 16.9958 132.075 16.3189 132.362 15.7362C132.658 15.1535 133.057 14.7052 133.559 14.3915C134.061 14.0777 134.621 13.9208 135.24 13.9208C135.769 13.9208 136.23 14.0284 136.625 14.2436C137.028 14.4587 137.337 14.7411 137.553 15.0907V14.0284H139.852V21.532H137.553V20.4696C137.328 20.8193 137.015 21.1017 136.611 21.3168C136.217 21.532 135.755 21.6396 135.226 21.6396C134.617 21.6396 134.061 21.4827 133.559 21.1689C133.057 20.8462 132.658 20.3934 132.362 19.8107C132.075 19.219 131.932 18.5377 131.932 17.7667ZM137.553 17.7802C137.553 17.2064 137.391 16.7537 137.068 16.422C136.755 16.0903 136.369 15.9245 135.912 15.9245C135.455 15.9245 135.065 16.0903 134.742 16.422C134.428 16.7447 134.271 17.193 134.271 17.7667C134.271 18.3405 134.428 18.7977 134.742 19.1384C135.065 19.4701 135.455 19.6359 135.912 19.6359C136.369 19.6359 136.755 19.4701 137.068 19.1384C137.391 18.8067 137.553 18.3539 137.553 17.7802ZM142.672 13.2485C142.269 13.2485 141.937 13.1319 141.677 12.8988C141.426 12.6568 141.3 12.3609 141.3 12.0113C141.3 11.6527 141.426 11.3569 141.677 11.1238C141.937 10.8817 142.269 10.7607 142.672 10.7607C143.067 10.7607 143.389 10.8817 143.64 11.1238C143.9 11.3569 144.03 11.6527 144.03 12.0113C144.03 12.3609 143.9 12.6568 143.64 12.8988C143.389 13.1319 143.067 13.2485 142.672 13.2485ZM143.815 14.0284V21.532H141.516V14.0284H143.815ZM147.781 11.581V21.532H145.482V11.581H147.781ZM156.521 17.6592C156.521 17.8743 156.507 18.0984 156.48 18.3315H151.276C151.312 18.7977 151.46 19.1563 151.72 19.4073C151.989 19.6494 152.316 19.7704 152.702 19.7704C153.275 19.7704 153.674 19.5283 153.898 19.0442H156.346C156.22 19.5373 155.992 19.9811 155.66 20.3755C155.337 20.77 154.929 21.0793 154.436 21.3034C153.943 21.5275 153.392 21.6396 152.782 21.6396C152.047 21.6396 151.393 21.4827 150.819 21.1689C150.245 20.8551 149.797 20.4069 149.474 19.8242C149.152 19.2415 148.99 18.5601 148.99 17.7802C148.99 17.0002 149.147 16.3189 149.461 15.7362C149.784 15.1535 150.232 14.7052 150.806 14.3915C151.379 14.0777 152.038 13.9208 152.782 13.9208C153.509 13.9208 154.154 14.0732 154.719 14.378C155.284 14.6828 155.723 15.1176 156.037 15.6824C156.359 16.2472 156.521 16.9061 156.521 17.6592ZM154.167 17.054C154.167 16.6596 154.033 16.3458 153.764 16.1127C153.495 15.8796 153.159 15.7631 152.755 15.7631C152.37 15.7631 152.043 15.8752 151.774 16.0993C151.514 16.3234 151.352 16.6417 151.29 17.054H154.167ZM157.277 17.7667C157.277 16.9958 157.42 16.3189 157.707 15.7362C158.003 15.1535 158.402 14.7052 158.904 14.3915C159.406 14.0777 159.966 13.9208 160.585 13.9208C161.078 13.9208 161.526 14.0239 161.929 14.2301C162.342 14.4363 162.664 14.7142 162.898 15.0638V11.581H165.197V21.532H162.898V20.4562C162.682 20.8148 162.373 21.1017 161.97 21.3168C161.575 21.532 161.114 21.6396 160.585 21.6396C159.966 21.6396 159.406 21.4827 158.904 21.1689C158.402 20.8462 158.003 20.3934 157.707 19.8107C157.42 19.219 157.277 18.5377 157.277 17.7667ZM162.898 17.7802C162.898 17.2064 162.736 16.7537 162.413 16.422C162.1 16.0903 161.714 15.9245 161.257 15.9245C160.8 15.9245 160.41 16.0903 160.087 16.422C159.773 16.7447 159.616 17.193 159.616 17.7667C159.616 18.3405 159.773 18.7977 160.087 19.1384C160.41 19.4701 160.8 19.6359 161.257 19.6359C161.714 19.6359 162.1 19.4701 162.413 19.1384C162.736 18.8067 162.898 18.3539 162.898 17.7802ZM169.253 17.7667C169.253 16.9958 169.397 16.3189 169.683 15.7362C169.979 15.1535 170.378 14.7052 170.88 14.3915C171.382 14.0777 171.943 13.9208 172.561 13.9208C173.054 13.9208 173.502 14.0239 173.906 14.2301C174.318 14.4363 174.641 14.7142 174.874 15.0638V11.581H177.174V21.532H174.874V20.4562C174.659 20.8148 174.35 21.1017 173.946 21.3168C173.552 21.532 173.09 21.6396 172.561 21.6396C171.943 21.6396 171.382 21.4827 170.88 21.1689C170.378 20.8462 169.979 20.3934 169.683 19.8107C169.397 19.219 169.253 18.5377 169.253 17.7667ZM174.874 17.7802C174.874 17.2064 174.713 16.7537 174.39 16.422C174.076 16.0903 173.691 15.9245 173.233 15.9245C172.776 15.9245 172.386 16.0903 172.064 16.422C171.75 16.7447 171.593 17.193 171.593 17.7667C171.593 18.3405 171.75 18.7977 172.064 19.1384C172.386 19.4701 172.776 19.6359 173.233 19.6359C173.691 19.6359 174.076 19.4701 174.39 19.1384C174.713 18.8067 174.874 18.3539 174.874 17.7802ZM185.91 17.6592C185.91 17.8743 185.897 18.0984 185.87 18.3315H180.666C180.702 18.7977 180.85 19.1563 181.11 19.4073C181.379 19.6494 181.706 19.7704 182.091 19.7704C182.665 19.7704 183.064 19.5283 183.288 19.0442H185.736C185.61 19.5373 185.381 19.9811 185.05 20.3755C184.727 20.77 184.319 21.0793 183.826 21.3034C183.333 21.5275 182.782 21.6396 182.172 21.6396C181.437 21.6396 180.782 21.4827 180.209 21.1689C179.635 20.8551 179.187 20.4069 178.864 19.8242C178.541 19.2415 178.38 18.5601 178.38 17.7802C178.38 17.0002 178.537 16.3189 178.851 15.7362C179.173 15.1535 179.622 14.7052 180.195 14.3915C180.769 14.0777 181.428 13.9208 182.172 13.9208C182.898 13.9208 183.544 14.0732 184.108 14.378C184.673 14.6828 185.113 15.1176 185.426 15.6824C185.749 16.2472 185.91 16.9061 185.91 17.6592ZM183.557 17.054C183.557 16.6596 183.423 16.3458 183.154 16.1127C182.885 15.8796 182.549 15.7631 182.145 15.7631C181.76 15.7631 181.432 15.8752 181.163 16.0993C180.904 16.3234 180.742 16.6417 180.679 17.054H183.557ZM190.176 21.6396C189.522 21.6396 188.939 21.5275 188.428 21.3034C187.917 21.0793 187.513 20.7745 187.218 20.389C186.922 19.9945 186.756 19.5552 186.72 19.0711H188.993C189.02 19.3311 189.141 19.5418 189.356 19.7032C189.571 19.8645 189.835 19.9452 190.149 19.9452C190.436 19.9452 190.656 19.8914 190.808 19.7838C190.969 19.6673 191.05 19.5194 191.05 19.3401C191.05 19.1249 190.938 18.968 190.714 18.8694C190.49 18.7618 190.127 18.6453 189.625 18.5198C189.087 18.3943 188.639 18.2643 188.28 18.1298C187.921 17.9864 187.612 17.7667 187.352 17.4709C187.092 17.1661 186.962 16.7582 186.962 16.2472C186.962 15.8169 187.079 15.4269 187.312 15.0773C187.554 14.7187 187.903 14.4363 188.361 14.2301C188.827 14.0239 189.378 13.9208 190.015 13.9208C190.956 13.9208 191.696 14.1539 192.233 14.6201C192.78 15.0863 193.094 15.7048 193.175 16.4758H191.05C191.014 16.2158 190.898 16.0096 190.7 15.8572C190.512 15.7048 190.261 15.6286 189.947 15.6286C189.678 15.6286 189.472 15.6824 189.329 15.79C189.185 15.8886 189.114 16.0276 189.114 16.2069C189.114 16.422 189.226 16.5834 189.45 16.691C189.683 16.7985 190.042 16.9061 190.526 17.0137C191.081 17.1571 191.534 17.3006 191.884 17.444C192.233 17.5785 192.538 17.8026 192.798 18.1164C193.067 18.4212 193.206 18.8336 193.215 19.3535C193.215 19.7928 193.09 20.1873 192.839 20.5369C192.597 20.8775 192.242 21.1465 191.776 21.3437C191.319 21.5409 190.786 21.6396 190.176 21.6396ZM195.778 13.2485C195.375 13.2485 195.043 13.1319 194.783 12.8988C194.532 12.6568 194.407 12.3609 194.407 12.0113C194.407 11.6527 194.532 11.3569 194.783 11.1238C195.043 10.8817 195.375 10.7607 195.778 10.7607C196.173 10.7607 196.496 10.8817 196.747 11.1238C197.007 11.3569 197.137 11.6527 197.137 12.0113C197.137 12.3609 197.007 12.6568 196.747 12.8988C196.496 13.1319 196.173 13.2485 195.778 13.2485ZM196.921 14.0284V21.532H194.622V14.0284H196.921ZM201.439 13.9208C201.968 13.9208 202.429 14.0284 202.824 14.2436C203.227 14.4587 203.536 14.7411 203.752 15.0907V14.0284H206.051V21.5185C206.051 22.2088 205.912 22.8319 205.634 23.3877C205.365 23.9525 204.948 24.4007 204.384 24.7324C203.828 25.0641 203.133 25.23 202.299 25.23C201.188 25.23 200.287 24.9655 199.596 24.4366C198.906 23.9166 198.512 23.2084 198.413 22.3119H200.686C200.757 22.5988 200.928 22.8229 201.197 22.9843C201.466 23.1546 201.797 23.2398 202.192 23.2398C202.667 23.2398 203.043 23.1008 203.321 22.8229C203.608 22.554 203.752 22.1192 203.752 21.5185V20.4562C203.527 20.8058 203.218 21.0927 202.824 21.3168C202.429 21.532 201.968 21.6396 201.439 21.6396C200.82 21.6396 200.26 21.4827 199.758 21.1689C199.256 20.8462 198.857 20.3934 198.561 19.8107C198.274 19.219 198.131 18.5377 198.131 17.7667C198.131 16.9958 198.274 16.3189 198.561 15.7362C198.857 15.1535 199.256 14.7052 199.758 14.3915C200.26 14.0777 200.82 13.9208 201.439 13.9208ZM203.752 17.7802C203.752 17.2064 203.59 16.7537 203.267 16.422C202.954 16.0903 202.568 15.9245 202.111 15.9245C201.654 15.9245 201.264 16.0903 200.941 16.422C200.627 16.7447 200.47 17.193 200.47 17.7667C200.47 18.3405 200.627 18.7977 200.941 19.1384C201.264 19.4701 201.654 19.6359 202.111 19.6359C202.568 19.6359 202.954 19.4701 203.267 19.1384C203.59 18.8067 203.752 18.3539 203.752 17.7802ZM212.287 13.9477C213.165 13.9477 213.865 14.2346 214.384 14.8083C214.913 15.3731 215.178 16.1531 215.178 17.1482V21.532H212.892V17.4575C212.892 16.9554 212.762 16.5655 212.502 16.2875C212.242 16.0096 211.892 15.8707 211.453 15.8707C211.014 15.8707 210.664 16.0096 210.404 16.2875C210.144 16.5655 210.014 16.9554 210.014 17.4575V21.532H207.715V14.0284H210.014V15.0235C210.247 14.6918 210.561 14.4318 210.955 14.2436C211.35 14.0463 211.794 13.9477 212.287 13.9477ZM221.925 15.0907C222.149 14.7411 222.458 14.4587 222.853 14.2436C223.247 14.0284 223.709 13.9208 224.238 13.9208C224.856 13.9208 225.417 14.0777 225.919 14.3915C226.421 14.7052 226.815 15.1535 227.102 15.7362C227.398 16.3189 227.546 16.9958 227.546 17.7667C227.546 18.5377 227.398 19.219 227.102 19.8107C226.815 20.3934 226.421 20.8462 225.919 21.1689C225.417 21.4827 224.856 21.6396 224.238 21.6396C223.718 21.6396 223.256 21.532 222.853 21.3168C222.458 21.1017 222.149 20.8238 221.925 20.4831V25.109H219.625V14.0284H221.925V15.0907ZM225.206 17.7667C225.206 17.193 225.045 16.7447 224.722 16.422C224.408 16.0903 224.018 15.9245 223.552 15.9245C223.095 15.9245 222.705 16.0903 222.382 16.422C222.068 16.7537 221.912 17.2064 221.912 17.7802C221.912 18.3539 222.068 18.8067 222.382 19.1384C222.705 19.4701 223.095 19.6359 223.552 19.6359C224.009 19.6359 224.399 19.4701 224.722 19.1384C225.045 18.7977 225.206 18.3405 225.206 17.7667ZM231.052 11.581V21.532H228.752V11.581H231.052ZM232.261 17.7667C232.261 16.9958 232.404 16.3189 232.691 15.7362C232.987 15.1535 233.386 14.7052 233.888 14.3915C234.39 14.0777 234.95 13.9208 235.569 13.9208C236.098 13.9208 236.56 14.0284 236.954 14.2436C237.358 14.4587 237.667 14.7411 237.882 15.0907V14.0284H240.181V21.532H237.882V20.4696C237.658 20.8193 237.344 21.1017 236.941 21.3168C236.546 21.532 236.084 21.6396 235.556 21.6396C234.946 21.6396 234.39 21.4827 233.888 21.1689C233.386 20.8462 232.987 20.3934 232.691 19.8107C232.404 19.219 232.261 18.5377 232.261 17.7667ZM237.882 17.7802C237.882 17.2064 237.721 16.7537 237.398 16.422C237.084 16.0903 236.699 15.9245 236.241 15.9245C235.784 15.9245 235.394 16.0903 235.071 16.422C234.758 16.7447 234.601 17.193 234.601 17.7667C234.601 18.3405 234.758 18.7977 235.071 19.1384C235.394 19.4701 235.784 19.6359 236.241 19.6359C236.699 19.6359 237.084 19.4701 237.398 19.1384C237.721 18.8067 237.882 18.3539 237.882 17.7802ZM246.417 13.9477C247.296 13.9477 247.995 14.2346 248.515 14.8083C249.044 15.3731 249.308 16.1531 249.308 17.1482V21.532H247.022V17.4575C247.022 16.9554 246.892 16.5655 246.632 16.2875C246.372 16.0096 246.023 15.8707 245.583 15.8707C245.144 15.8707 244.794 16.0096 244.534 16.2875C244.274 16.5655 244.144 16.9554 244.144 17.4575V21.532H241.845V14.0284H244.144V15.0235C244.378 14.6918 244.691 14.4318 245.086 14.2436C245.48 14.0463 245.924 13.9477 246.417 13.9477Z" fill="#333333"/>
<path d="M49.381 60.6542V62.5638H52.4605V64.3388H49.381V66.4097H52.8639V68.252H47.0815V58.812H52.8639V60.6542H49.381ZM58.7943 68.252L57.3555 66.1676L56.1452 68.252H53.6575L56.1318 64.4195L53.5902 60.7484H56.1721L57.611 62.8192L58.8212 60.7484H61.309L58.7943 64.5271L61.3762 68.252H58.7943ZM69.3355 64.3791C69.3355 64.5943 69.3221 64.8184 69.2952 65.0515H64.0911C64.127 65.5177 64.2749 65.8763 64.5349 66.1273C64.8038 66.3693 65.131 66.4904 65.5165 66.4904C66.0903 66.4904 66.4892 66.2483 66.7133 65.7642H69.1607C69.0352 66.2573 68.8066 66.701 68.4749 67.0955C68.1522 67.4899 67.7443 67.7992 67.2512 68.0233C66.7582 68.2475 66.2068 68.3595 65.5972 68.3595C64.8621 68.3595 64.2076 68.2026 63.6339 67.8889C63.0601 67.5751 62.6119 67.1269 62.2892 66.5441C61.9664 65.9614 61.8051 65.2801 61.8051 64.5002C61.8051 63.7202 61.962 63.0389 62.2757 62.4562C62.5985 61.8735 63.0467 61.4252 63.6205 61.1114C64.1942 60.7977 64.8531 60.6408 65.5972 60.6408C66.3234 60.6408 66.9688 60.7932 67.5336 61.098C68.0984 61.4028 68.5377 61.8376 68.8514 62.4024C69.1742 62.9672 69.3355 63.6261 69.3355 64.3791ZM66.9823 63.774C66.9823 63.3796 66.8478 63.0658 66.5789 62.8327C66.3099 62.5996 65.9737 62.4831 65.5703 62.4831C65.1848 62.4831 64.8576 62.5951 64.5887 62.8192C64.3287 63.0434 64.1673 63.3616 64.1046 63.774H66.9823ZM70.0914 64.5002C70.0914 63.7202 70.2483 63.0389 70.5621 62.4562C70.8848 61.8735 71.3286 61.4252 71.8934 61.1114C72.4671 60.7977 73.1216 60.6408 73.8567 60.6408C74.798 60.6408 75.5824 60.8873 76.2099 61.3804C76.8465 61.8735 77.2633 62.5682 77.4605 63.4647H75.0131C74.8069 62.891 74.408 62.6041 73.8163 62.6041C73.395 62.6041 73.0588 62.7699 72.8078 63.1016C72.5568 63.4244 72.4313 63.8906 72.4313 64.5002C72.4313 65.1098 72.5568 65.5804 72.8078 65.9121C73.0588 66.2349 73.395 66.3962 73.8163 66.3962C74.408 66.3962 74.8069 66.1094 75.0131 65.5356H77.4605C77.2633 66.4142 76.8465 67.1045 76.2099 67.6065C75.5734 68.1085 74.789 68.3595 73.8567 68.3595C73.1216 68.3595 72.4671 68.2026 71.8934 67.8889C71.3286 67.5751 70.8848 67.1269 70.5621 66.5441C70.2483 65.9614 70.0914 65.2801 70.0914 64.5002ZM86.1 60.7484V68.252H83.8005V67.23C83.5674 67.5617 83.2492 67.8306 82.8458 68.0368C82.4513 68.234 82.012 68.3326 81.5279 68.3326C80.9542 68.3326 80.4477 68.2071 80.0084 67.9561C79.5691 67.6961 79.2284 67.3241 78.9864 66.84C78.7443 66.3559 78.6233 65.7866 78.6233 65.1322V60.7484H80.9094V64.8229C80.9094 65.3249 81.0393 65.7149 81.2993 65.9928C81.5593 66.2707 81.9089 66.4097 82.3482 66.4097C82.7965 66.4097 83.1506 66.2707 83.4105 65.9928C83.6705 65.7149 83.8005 65.3249 83.8005 64.8229V60.7484H86.1ZM91.9338 66.3021V68.252H90.7639C89.9302 68.252 89.2802 68.0502 88.814 67.6468C88.3479 67.2344 88.1148 66.5666 88.1148 65.6432V62.6579H87.2004V60.7484H88.1148V58.9195H90.4143V60.7484H91.9204V62.6579H90.4143V65.6701C90.4143 65.8942 90.4681 66.0556 90.5756 66.1542C90.6832 66.2528 90.8625 66.3021 91.1135 66.3021H91.9338ZM100.288 64.3791C100.288 64.5943 100.274 64.8184 100.248 65.0515H95.0435C95.0794 65.5177 95.2273 65.8763 95.4873 66.1273C95.7562 66.3693 96.0834 66.4904 96.4689 66.4904C97.0427 66.4904 97.4416 66.2483 97.6657 65.7642H100.113C99.9876 66.2573 99.759 66.701 99.4273 67.0955C99.1046 67.4899 98.6967 67.7992 98.2036 68.0233C97.7105 68.2475 97.1592 68.3595 96.5496 68.3595C95.8145 68.3595 95.16 68.2026 94.5863 67.8889C94.0125 67.5751 93.5643 67.1269 93.2416 66.5441C92.9188 65.9614 92.7575 65.2801 92.7575 64.5002C92.7575 63.7202 92.9143 63.0389 93.2281 62.4562C93.5509 61.8735 93.9991 61.4252 94.5728 61.1114C95.1466 60.7977 95.8055 60.6408 96.5496 60.6408C97.2758 60.6408 97.9212 60.7932 98.486 61.098C99.0508 61.4028 99.4901 61.8376 99.8038 62.4024C100.127 62.9672 100.288 63.6261 100.288 64.3791ZM97.9347 63.774C97.9347 63.3796 97.8002 63.0658 97.5313 62.8327C97.2623 62.5996 96.9261 62.4831 96.5227 62.4831C96.1372 62.4831 95.81 62.5951 95.5411 62.8192C95.2811 63.0434 95.1197 63.3616 95.0569 63.774H97.9347ZM108.533 66.3021V68.252H107.363C106.529 68.252 105.879 68.0502 105.413 67.6468C104.947 67.2344 104.714 66.5666 104.714 65.6432V62.6579H103.799V60.7484H104.714V58.9195H107.013V60.7484H108.519V62.6579H107.013V65.6701C107.013 65.8942 107.067 66.0556 107.175 66.1542C107.282 66.2528 107.462 66.3021 107.713 66.3021H108.533ZM114.426 60.6677C115.287 60.6677 115.977 60.9546 116.497 61.5283C117.017 62.0931 117.277 62.873 117.277 63.8681V68.252H114.991V64.1774C114.991 63.6754 114.861 63.2854 114.601 63.0075C114.341 62.7296 113.991 62.5906 113.552 62.5906C113.113 62.5906 112.763 62.7296 112.503 63.0075C112.243 63.2854 112.113 63.6754 112.113 64.1774V68.252H109.814V58.301H112.113V61.7569C112.346 61.4252 112.664 61.1608 113.068 60.9635C113.471 60.7663 113.924 60.6677 114.426 60.6677ZM125.948 64.3791C125.948 64.5943 125.935 64.8184 125.908 65.0515H120.704C120.74 65.5177 120.887 65.8763 121.147 66.1273C121.416 66.3693 121.744 66.4904 122.129 66.4904C122.703 66.4904 123.102 66.2483 123.326 65.7642H125.773C125.648 66.2573 125.419 66.701 125.087 67.0955C124.765 67.4899 124.357 67.7992 123.864 68.0233C123.371 68.2475 122.819 68.3595 122.21 68.3595C121.475 68.3595 120.82 68.2026 120.246 67.8889C119.673 67.5751 119.224 67.1269 118.902 66.5441C118.579 65.9614 118.418 65.2801 118.418 64.5002C118.418 63.7202 118.575 63.0389 118.888 62.4562C119.211 61.8735 119.659 61.4252 120.233 61.1114C120.807 60.7977 121.466 60.6408 122.21 60.6408C122.936 60.6408 123.581 60.7932 124.146 61.098C124.711 61.4028 125.15 61.8376 125.464 62.4024C125.787 62.9672 125.948 63.6261 125.948 64.3791ZM123.595 63.774C123.595 63.3796 123.46 63.0658 123.191 62.8327C122.922 62.5996 122.586 62.4831 122.183 62.4831C121.797 62.4831 121.47 62.5951 121.201 62.8192C120.941 63.0434 120.78 63.3616 120.717 63.774H123.595ZM132.31 61.8107C132.534 61.4611 132.844 61.1787 133.238 60.9635C133.633 60.7484 134.094 60.6408 134.623 60.6408C135.242 60.6408 135.802 60.7977 136.304 61.1114C136.806 61.4252 137.201 61.8735 137.488 62.4562C137.783 63.0389 137.931 63.7157 137.931 64.4867C137.931 65.2577 137.783 65.939 137.488 66.5307C137.201 67.1134 136.806 67.5661 136.304 67.8889C135.802 68.2026 135.242 68.3595 134.623 68.3595C134.103 68.3595 133.642 68.252 133.238 68.0368C132.844 67.8216 132.534 67.5437 132.31 67.2031V71.8289H130.011V60.7484H132.31V61.8107ZM135.591 64.4867C135.591 63.913 135.43 63.4647 135.107 63.142C134.794 62.8103 134.404 62.6444 133.937 62.6444C133.48 62.6444 133.09 62.8103 132.768 63.142C132.454 63.4737 132.297 63.9264 132.297 64.5002C132.297 65.0739 132.454 65.5266 132.768 65.8583C133.09 66.19 133.48 66.3559 133.937 66.3559C134.395 66.3559 134.785 66.19 135.107 65.8583C135.43 65.5177 135.591 65.0605 135.591 64.4867ZM141.437 58.301V68.252H139.138V58.301H141.437ZM142.646 64.4867C142.646 63.7157 142.79 63.0389 143.077 62.4562C143.373 61.8735 143.771 61.4252 144.273 61.1114C144.776 60.7977 145.336 60.6408 145.954 60.6408C146.483 60.6408 146.945 60.7484 147.339 60.9635C147.743 61.1787 148.052 61.4611 148.267 61.8107V60.7484H150.567V68.252H148.267V67.1896C148.043 67.5392 147.729 67.8216 147.326 68.0368C146.932 68.252 146.47 68.3595 145.941 68.3595C145.331 68.3595 144.776 68.2026 144.273 67.8889C143.771 67.5661 143.373 67.1134 143.077 66.5307C142.79 65.939 142.646 65.2577 142.646 64.4867ZM148.267 64.5002C148.267 63.9264 148.106 63.4737 147.783 63.142C147.469 62.8103 147.084 62.6444 146.627 62.6444C146.17 62.6444 145.78 62.8103 145.457 63.142C145.143 63.4647 144.986 63.913 144.986 64.4867C144.986 65.0605 145.143 65.5177 145.457 65.8583C145.78 66.19 146.17 66.3559 146.627 66.3559C147.084 66.3559 147.469 66.19 147.783 65.8583C148.106 65.5266 148.267 65.0739 148.267 64.5002ZM156.802 60.6677C157.681 60.6677 158.38 60.9546 158.9 61.5283C159.429 62.0931 159.694 62.873 159.694 63.8681V68.252H157.408V64.1774C157.408 63.6754 157.278 63.2854 157.018 63.0075C156.758 62.7296 156.408 62.5906 155.969 62.5906C155.529 62.5906 155.18 62.7296 154.92 63.0075C154.66 63.2854 154.53 63.6754 154.53 64.1774V68.252H152.23V60.7484H154.53V61.7435C154.763 61.4118 155.077 61.1518 155.471 60.9635C155.866 60.7663 156.309 60.6677 156.802 60.6677ZM163.684 64.4867C163.684 63.7157 163.827 63.0389 164.114 62.4562C164.41 61.8735 164.809 61.4252 165.311 61.1114C165.813 60.7977 166.373 60.6408 166.992 60.6408C167.521 60.6408 167.983 60.7484 168.377 60.9635C168.781 61.1787 169.09 61.4611 169.305 61.8107V60.7484H171.604V68.252H169.305V67.1896C169.081 67.5392 168.767 67.8216 168.364 68.0368C167.969 68.252 167.508 68.3595 166.979 68.3595C166.369 68.3595 165.813 68.2026 165.311 67.8889C164.809 67.5661 164.41 67.1134 164.114 66.5307C163.827 65.939 163.684 65.2577 163.684 64.4867ZM169.305 64.5002C169.305 63.9264 169.144 63.4737 168.821 63.142C168.507 62.8103 168.122 62.6444 167.664 62.6444C167.207 62.6444 166.817 62.8103 166.494 63.142C166.181 63.4647 166.024 63.913 166.024 64.4867C166.024 65.0605 166.181 65.5177 166.494 65.8583C166.817 66.19 167.207 66.3559 167.664 66.3559C168.122 66.3559 168.507 66.19 168.821 65.8583C169.144 65.5266 169.305 65.0739 169.305 64.5002ZM177.84 60.6677C178.719 60.6677 179.418 60.9546 179.938 61.5283C180.467 62.0931 180.731 62.873 180.731 63.8681V68.252H178.445V64.1774C178.445 63.6754 178.315 63.2854 178.055 63.0075C177.795 62.7296 177.446 62.5906 177.006 62.5906C176.567 62.5906 176.217 62.7296 175.958 63.0075C175.698 63.2854 175.568 63.6754 175.568 64.1774V68.252H173.268V60.7484H175.568V61.7435C175.801 61.4118 176.114 61.1518 176.509 60.9635C176.903 60.7663 177.347 60.6677 177.84 60.6677ZM181.872 64.4867C181.872 63.7157 182.015 63.0389 182.302 62.4562C182.598 61.8735 182.997 61.4252 183.499 61.1114C184.001 60.7977 184.561 60.6408 185.18 60.6408C185.673 60.6408 186.121 60.7439 186.525 60.9501C186.937 61.1563 187.26 61.4342 187.493 61.7838V58.301H189.792V68.252H187.493V67.1762C187.278 67.5348 186.969 67.8216 186.565 68.0368C186.171 68.252 185.709 68.3595 185.18 68.3595C184.561 68.3595 184.001 68.2026 183.499 67.8889C182.997 67.5661 182.598 67.1134 182.302 66.5307C182.015 65.939 181.872 65.2577 181.872 64.4867ZM187.493 64.5002C187.493 63.9264 187.332 63.4737 187.009 63.142C186.695 62.8103 186.31 62.6444 185.852 62.6444C185.395 62.6444 185.005 62.8103 184.682 63.142C184.369 63.4647 184.212 63.913 184.212 64.4867C184.212 65.0605 184.369 65.5177 184.682 65.8583C185.005 66.19 185.395 66.3559 185.852 66.3559C186.31 66.3559 186.695 66.19 187.009 65.8583C187.332 65.5266 187.493 65.0739 187.493 64.5002ZM193.848 64.5002C193.848 63.7202 194.005 63.0389 194.319 62.4562C194.642 61.8735 195.086 61.4252 195.65 61.1114C196.224 60.7977 196.879 60.6408 197.614 60.6408C198.555 60.6408 199.339 60.8873 199.967 61.3804C200.603 61.8735 201.02 62.5682 201.218 63.4647H198.77C198.564 62.891 198.165 62.6041 197.573 62.6041C197.152 62.6041 196.816 62.7699 196.565 63.1016C196.314 63.4244 196.188 63.8906 196.188 64.5002C196.188 65.1098 196.314 65.5804 196.565 65.9121C196.816 66.2349 197.152 66.3962 197.573 66.3962C198.165 66.3962 198.564 66.1094 198.77 65.5356H201.218C201.02 66.4142 200.603 67.1045 199.967 67.6065C199.33 68.1085 198.546 68.3595 197.614 68.3595C196.879 68.3595 196.224 68.2026 195.65 67.8889C195.086 67.5751 194.642 67.1269 194.319 66.5441C194.005 65.9614 193.848 65.2801 193.848 64.5002ZM205.863 68.3595C205.128 68.3595 204.465 68.2026 203.873 67.8889C203.29 67.5751 202.829 67.1269 202.488 66.5441C202.156 65.9614 201.99 65.2801 201.99 64.5002C201.99 63.7292 202.161 63.0523 202.501 62.4696C202.842 61.8779 203.308 61.4252 203.9 61.1114C204.492 60.7977 205.155 60.6408 205.89 60.6408C206.625 60.6408 207.289 60.7977 207.88 61.1114C208.472 61.4252 208.938 61.8779 209.279 62.4696C209.619 63.0523 209.79 63.7292 209.79 64.5002C209.79 65.2711 209.615 65.9525 209.265 66.5441C208.925 67.1269 208.454 67.5751 207.853 67.8889C207.262 68.2026 206.598 68.3595 205.863 68.3595ZM205.863 66.3693C206.302 66.3693 206.675 66.208 206.979 65.8852C207.293 65.5625 207.45 65.1008 207.45 64.5002C207.45 63.8995 207.298 63.4378 206.993 63.1151C206.697 62.7924 206.329 62.631 205.89 62.631C205.442 62.631 205.07 62.7924 204.774 63.1151C204.478 63.4289 204.33 63.8906 204.33 64.5002C204.33 65.1008 204.474 65.5625 204.761 65.8852C205.056 66.208 205.424 66.3693 205.863 66.3693ZM214.425 68.3595C213.69 68.3595 213.027 68.2026 212.435 67.8889C211.852 67.5751 211.391 67.1269 211.05 66.5441C210.718 65.9614 210.553 65.2801 210.553 64.5002C210.553 63.7292 210.723 63.0523 211.064 62.4696C211.404 61.8779 211.87 61.4252 212.462 61.1114C213.054 60.7977 213.717 60.6408 214.452 60.6408C215.187 60.6408 215.851 60.7977 216.442 61.1114C217.034 61.4252 217.5 61.8779 217.841 62.4696C218.182 63.0523 218.352 63.7292 218.352 64.5002C218.352 65.2711 218.177 65.9525 217.828 66.5441C217.487 67.1269 217.016 67.5751 216.416 67.8889C215.824 68.2026 215.16 68.3595 214.425 68.3595ZM214.425 66.3693C214.865 66.3693 215.237 66.208 215.541 65.8852C215.855 65.5625 216.012 65.1008 216.012 64.5002C216.012 63.8995 215.86 63.4378 215.555 63.1151C215.259 62.7924 214.892 62.631 214.452 62.631C214.004 62.631 213.632 62.7924 213.336 63.1151C213.04 63.4289 212.892 63.8906 212.892 64.5002C212.892 65.1008 213.036 65.5625 213.323 65.8852C213.619 66.208 213.986 66.3693 214.425 66.3693ZM221.871 61.999C222.14 61.5866 222.476 61.2638 222.88 61.0308C223.283 60.7887 223.732 60.6677 224.225 60.6677V63.1016H223.593C223.019 63.1016 222.589 63.2272 222.302 63.4782C222.015 63.7202 221.871 64.1505 221.871 64.7691V68.252H219.572V60.7484H221.871V61.999ZM224.867 64.4867C224.867 63.7157 225.01 63.0389 225.297 62.4562C225.593 61.8735 225.992 61.4252 226.494 61.1114C226.996 60.7977 227.556 60.6408 228.175 60.6408C228.668 60.6408 229.116 60.7439 229.519 60.9501C229.932 61.1563 230.254 61.4342 230.487 61.7838V58.301H232.787V68.252H230.487V67.1762C230.272 67.5348 229.963 67.8216 229.56 68.0368C229.165 68.252 228.703 68.3595 228.175 68.3595C227.556 68.3595 226.996 68.2026 226.494 67.8889C225.992 67.5661 225.593 67.1134 225.297 66.5307C225.01 65.939 224.867 65.2577 224.867 64.4867ZM230.487 64.5002C230.487 63.9264 230.326 63.4737 230.003 63.142C229.69 62.8103 229.304 62.6444 228.847 62.6444C228.39 62.6444 228 62.8103 227.677 63.142C227.363 63.4647 227.206 63.913 227.206 64.4867C227.206 65.0605 227.363 65.5177 227.677 65.8583C228 66.19 228.39 66.3559 228.847 66.3559C229.304 66.3559 229.69 66.19 230.003 65.8583C230.326 65.5266 230.487 65.0739 230.487 64.5002ZM235.607 59.9684C235.204 59.9684 234.872 59.8519 234.612 59.6188C234.361 59.3767 234.235 59.0809 234.235 58.7313C234.235 58.3727 234.361 58.0768 234.612 57.8438C234.872 57.6017 235.204 57.4807 235.607 57.4807C236.001 57.4807 236.324 57.6017 236.575 57.8438C236.835 58.0768 236.965 58.3727 236.965 58.7313C236.965 59.0809 236.835 59.3767 236.575 59.6188C236.324 59.8519 236.001 59.9684 235.607 59.9684ZM236.75 60.7484V68.252H234.451V60.7484H236.75ZM242.989 60.6677C243.867 60.6677 244.566 60.9546 245.086 61.5283C245.615 62.0931 245.88 62.873 245.88 63.8681V68.252H243.594V64.1774C243.594 63.6754 243.464 63.2854 243.204 63.0075C242.944 62.7296 242.594 62.5906 242.155 62.5906C241.716 62.5906 241.366 62.7296 241.106 63.0075C240.846 63.2854 240.716 63.6754 240.716 64.1774V68.252H238.416V60.7484H240.716V61.7435C240.949 61.4118 241.263 61.1518 241.657 60.9635C242.052 60.7663 242.495 60.6677 242.989 60.6677ZM247.02 64.4867C247.02 63.7157 247.164 63.0389 247.451 62.4562C247.747 61.8735 248.146 61.4252 248.648 61.1114C249.15 60.7977 249.71 60.6408 250.328 60.6408C250.857 60.6408 251.319 60.7484 251.714 60.9635C252.117 61.1787 252.426 61.4611 252.641 61.8107V60.7484H254.941V68.252H252.641V67.1896C252.417 67.5392 252.103 67.8216 251.7 68.0368C251.306 68.252 250.844 68.3595 250.315 68.3595C249.705 68.3595 249.15 68.2026 248.648 67.8889C248.146 67.5661 247.747 67.1134 247.451 66.5307C247.164 65.939 247.02 65.2577 247.02 64.4867ZM252.641 64.5002C252.641 63.9264 252.48 63.4737 252.157 63.142C251.844 62.8103 251.458 62.6444 251.001 62.6444C250.544 62.6444 250.154 62.8103 249.831 63.142C249.517 63.4647 249.36 63.913 249.36 64.4867C249.36 65.0605 249.517 65.5177 249.831 65.8583C250.154 66.19 250.544 66.3559 251.001 66.3559C251.458 66.3559 251.844 66.19 252.157 65.8583C252.48 65.5266 252.641 65.0739 252.641 64.5002ZM260.787 66.3021V68.252H259.617C258.783 68.252 258.133 68.0502 257.667 67.6468C257.201 67.2344 256.968 66.5666 256.968 65.6432V62.6579H256.053V60.7484H256.968V58.9195H259.267V60.7484H260.773V62.6579H259.267V65.6701C259.267 65.8942 259.321 66.0556 259.428 66.1542C259.536 66.2528 259.715 66.3021 259.966 66.3021H260.787ZM269.141 64.3791C269.141 64.5943 269.127 64.8184 269.1 65.0515H263.896C263.932 65.5177 264.08 65.8763 264.34 66.1273C264.609 66.3693 264.936 66.4904 265.322 66.4904C265.895 66.4904 266.294 66.2483 266.518 65.7642H268.966C268.84 66.2573 268.612 66.701 268.28 67.0955C267.957 67.4899 267.549 67.7992 267.056 68.0233C266.563 68.2475 266.012 68.3595 265.402 68.3595C264.667 68.3595 264.013 68.2026 263.439 67.8889C262.865 67.5751 262.417 67.1269 262.094 66.5441C261.772 65.9614 261.61 65.2801 261.61 64.5002C261.61 63.7202 261.767 63.0389 262.081 62.4562C262.404 61.8735 262.852 61.4252 263.426 61.1114C263.999 60.7977 264.658 60.6408 265.402 60.6408C266.128 60.6408 266.774 60.7932 267.339 61.098C267.904 61.4028 268.343 61.8376 268.657 62.4024C268.979 62.9672 269.141 63.6261 269.141 64.3791ZM266.787 63.774C266.787 63.3796 266.653 63.0658 266.384 62.8327C266.115 62.5996 265.779 62.4831 265.375 62.4831C264.99 62.4831 264.663 62.5951 264.394 62.8192C264.134 63.0434 263.972 63.3616 263.91 63.774H266.787ZM283.975 60.7484L281.944 68.252H279.403L278.219 63.384L276.996 68.252H274.467L272.423 60.7484H274.723L275.785 66.1138L277.049 60.7484H279.483L280.761 66.0869L281.81 60.7484H283.975ZM286.008 59.9684C285.605 59.9684 285.273 59.8519 285.013 59.6188C284.762 59.3767 284.636 59.0809 284.636 58.7313C284.636 58.3727 284.762 58.0768 285.013 57.8438C285.273 57.6017 285.605 57.4807 286.008 57.4807C286.403 57.4807 286.725 57.6017 286.976 57.8438C287.236 58.0768 287.366 58.3727 287.366 58.7313C287.366 59.0809 287.236 59.3767 286.976 59.6188C286.725 59.8519 286.403 59.9684 286.008 59.9684ZM287.151 60.7484V68.252H284.852V60.7484H287.151ZM293 66.3021V68.252H291.83C290.996 68.252 290.346 68.0502 289.88 67.6468C289.414 67.2344 289.181 66.5666 289.181 65.6432V62.6579H288.266V60.7484H289.181V58.9195H291.48V60.7484H292.986V62.6579H291.48V65.6701C291.48 65.8942 291.534 66.0556 291.641 66.1542C291.749 66.2528 291.928 66.3021 292.179 66.3021H293ZM298.893 60.6677C299.754 60.6677 300.444 60.9546 300.964 61.5283C301.484 62.0931 301.744 62.873 301.744 63.8681V68.252H299.458V64.1774C299.458 63.6754 299.328 63.2854 299.068 63.0075C298.808 62.7296 298.458 62.5906 298.019 62.5906C297.58 62.5906 297.23 62.7296 296.97 63.0075C296.71 63.2854 296.58 63.6754 296.58 64.1774V68.252H294.28V58.301H296.58V61.7569C296.813 61.4252 297.131 61.1608 297.535 60.9635C297.938 60.7663 298.391 60.6677 298.893 60.6677ZM309.567 66.1004L311.194 60.7484H313.641L310.979 68.252H308.141L305.479 60.7484H307.939L309.567 66.1004ZM321.682 64.3791C321.682 64.5943 321.669 64.8184 321.642 65.0515H316.438C316.474 65.5177 316.622 65.8763 316.882 66.1273C317.151 66.3693 317.478 66.4904 317.863 66.4904C318.437 66.4904 318.836 66.2483 319.06 65.7642H321.507C321.382 66.2573 321.153 66.701 320.822 67.0955C320.499 67.4899 320.091 67.7992 319.598 68.0233C319.105 68.2475 318.554 68.3595 317.944 68.3595C317.209 68.3595 316.554 68.2026 315.981 67.8889C315.407 67.5751 314.959 67.1269 314.636 66.5441C314.313 65.9614 314.152 65.2801 314.152 64.5002C314.152 63.7202 314.309 63.0389 314.622 62.4562C314.945 61.8735 315.393 61.4252 315.967 61.1114C316.541 60.7977 317.2 60.6408 317.944 60.6408C318.67 60.6408 319.316 60.7932 319.88 61.098C320.445 61.4028 320.884 61.8376 321.198 62.4024C321.521 62.9672 321.682 63.6261 321.682 64.3791ZM319.329 63.774C319.329 63.3796 319.195 63.0658 318.926 62.8327C318.657 62.5996 318.32 62.4831 317.917 62.4831C317.532 62.4831 317.204 62.5951 316.935 62.8192C316.675 63.0434 316.514 63.3616 316.451 63.774H319.329ZM327.467 60.6677C328.346 60.6677 329.045 60.9546 329.565 61.5283C330.094 62.0931 330.359 62.873 330.359 63.8681V68.252H328.073V64.1774C328.073 63.6754 327.943 63.2854 327.683 63.0075C327.423 62.7296 327.073 62.5906 326.634 62.5906C326.194 62.5906 325.845 62.7296 325.585 63.0075C325.325 63.2854 325.195 63.6754 325.195 64.1774V68.252H322.895V60.7484H325.195V61.7435C325.428 61.4118 325.742 61.1518 326.136 60.9635C326.531 60.7663 326.974 60.6677 327.467 60.6677ZM331.499 64.4867C331.499 63.7157 331.643 63.0389 331.93 62.4562C332.225 61.8735 332.624 61.4252 333.126 61.1114C333.628 60.7977 334.189 60.6408 334.807 60.6408C335.3 60.6408 335.749 60.7439 336.152 60.9501C336.564 61.1563 336.887 61.4342 337.12 61.7838V58.301H339.42V68.252H337.12V67.1762C336.905 67.5348 336.596 67.8216 336.192 68.0368C335.798 68.252 335.336 68.3595 334.807 68.3595C334.189 68.3595 333.628 68.2026 333.126 67.8889C332.624 67.5661 332.225 67.1134 331.93 66.5307C331.643 65.939 331.499 65.2577 331.499 64.4867ZM337.12 64.5002C337.12 63.9264 336.959 63.4737 336.636 63.142C336.322 62.8103 335.937 62.6444 335.48 62.6444C335.023 62.6444 334.633 62.8103 334.31 63.142C333.996 63.4647 333.839 63.913 333.839 64.4867C333.839 65.0605 333.996 65.5177 334.31 65.8583C334.633 66.19 335.023 66.3559 335.48 66.3559C335.937 66.3559 336.322 66.19 336.636 65.8583C336.959 65.5266 337.12 65.0739 337.12 64.5002ZM344.499 68.3595C343.764 68.3595 343.1 68.2026 342.509 67.8889C341.926 67.5751 341.464 67.1269 341.124 66.5441C340.792 65.9614 340.626 65.2801 340.626 64.5002C340.626 63.7292 340.796 63.0523 341.137 62.4696C341.478 61.8779 341.944 61.4252 342.536 61.1114C343.127 60.7977 343.791 60.6408 344.526 60.6408C345.261 60.6408 345.924 60.7977 346.516 61.1114C347.108 61.4252 347.574 61.8779 347.915 62.4696C348.255 63.0523 348.426 63.7292 348.426 64.5002C348.426 65.2711 348.251 65.9525 347.901 66.5441C347.56 67.1269 347.09 67.5751 346.489 67.8889C345.897 68.2026 345.234 68.3595 344.499 68.3595ZM344.499 66.3693C344.938 66.3693 345.31 66.208 345.615 65.8852C345.929 65.5625 346.086 65.1008 346.086 64.5002C346.086 63.8995 345.933 63.4378 345.629 63.1151C345.333 62.7924 344.965 62.631 344.526 62.631C344.078 62.631 343.706 62.7924 343.41 63.1151C343.114 63.4289 342.966 63.8906 342.966 64.5002C342.966 65.1008 343.109 65.5625 343.396 65.8852C343.692 66.208 344.06 66.3693 344.499 66.3693ZM351.945 61.999C352.214 61.5866 352.55 61.2638 352.954 61.0308C353.357 60.7887 353.805 60.6677 354.298 60.6677V63.1016H353.666C353.092 63.1016 352.662 63.2272 352.375 63.4782C352.088 63.7202 351.945 64.1505 351.945 64.7691V68.252H349.645V60.7484H351.945V61.999ZM358.45 68.3595C357.795 68.3595 357.213 68.2475 356.702 68.0233C356.191 67.7992 355.787 67.4944 355.491 67.1089C355.196 66.7145 355.03 66.2752 354.994 65.7911H357.267C357.293 66.0511 357.414 66.2618 357.63 66.4231C357.845 66.5845 358.109 66.6652 358.423 66.6652C358.71 66.6652 358.929 66.6114 359.082 66.5038C359.243 66.3873 359.324 66.2393 359.324 66.06C359.324 65.8449 359.212 65.688 358.988 65.5894C358.764 65.4818 358.401 65.3653 357.899 65.2398C357.361 65.1143 356.912 64.9843 356.554 64.8498C356.195 64.7064 355.886 64.4867 355.626 64.1909C355.366 63.8861 355.236 63.4782 355.236 62.9672C355.236 62.5369 355.353 62.1469 355.586 61.7973C355.828 61.4387 356.177 61.1563 356.634 60.9501C357.101 60.7439 357.652 60.6408 358.289 60.6408C359.23 60.6408 359.969 60.8739 360.507 61.34C361.054 61.8062 361.368 62.4248 361.449 63.1958H359.324C359.288 62.9358 359.172 62.7296 358.974 62.5772C358.786 62.4248 358.535 62.3486 358.221 62.3486C357.952 62.3486 357.746 62.4024 357.603 62.51C357.459 62.6086 357.388 62.7475 357.388 62.9268C357.388 63.142 357.5 63.3034 357.724 63.4109C357.957 63.5185 358.315 63.6261 358.8 63.7337C359.355 63.8771 359.808 64.0205 360.158 64.164C360.507 64.2985 360.812 64.5226 361.072 64.8363C361.341 65.1411 361.48 65.5535 361.489 66.0735C361.489 66.5128 361.363 66.9072 361.112 67.2569C360.87 67.5975 360.516 67.8665 360.05 68.0637C359.593 68.2609 359.059 68.3595 358.45 68.3595ZM363.972 68.3595C363.568 68.3595 363.236 68.243 362.976 68.0099C362.725 67.7679 362.6 67.472 362.6 67.1224C362.6 66.7638 362.725 66.4635 362.976 66.2214C363.236 65.9794 363.568 65.8583 363.972 65.8583C364.366 65.8583 364.689 65.9794 364.94 66.2214C365.2 66.4635 365.33 66.7638 365.33 67.1224C365.33 67.472 365.2 67.7679 364.94 68.0099C364.689 68.243 364.366 68.3595 363.972 68.3595Z" fill="#333333"/>
<path d="M48.8324 105.529V114.972H46.5321V105.529H48.8324ZM55.073 107.385C55.9518 107.385 56.6513 107.672 57.1715 108.246C57.7006 108.811 57.9651 109.591 57.9651 110.587V114.972H55.6783V110.896C55.6783 110.394 55.5483 110.004 55.2882 109.726C55.0281 109.448 54.6784 109.309 54.239 109.309C53.7996 109.309 53.4498 109.448 53.1897 109.726C52.9297 110.004 52.7996 110.394 52.7996 110.896V114.972H50.4994V107.466H52.7996V108.461C53.0328 108.13 53.3467 107.87 53.7413 107.681C54.1358 107.484 54.5798 107.385 55.073 107.385ZM62.6171 115.08C61.9625 115.08 61.3796 114.968 60.8684 114.743C60.3572 114.519 59.9537 114.214 59.6577 113.829C59.3618 113.434 59.1959 112.995 59.16 112.51H61.4334C61.4603 112.771 61.5813 112.981 61.7966 113.143C62.0118 113.304 62.2764 113.385 62.5902 113.385C62.8772 113.385 63.0969 113.331 63.2494 113.223C63.4108 113.107 63.4915 112.959 63.4915 112.78C63.4915 112.564 63.3794 112.407 63.1552 112.309C62.931 112.201 62.5678 112.085 62.0656 111.959C61.5275 111.833 61.0791 111.703 60.7204 111.569C60.3617 111.425 60.0523 111.206 59.7923 110.91C59.5322 110.605 59.4022 110.197 59.4022 109.686C59.4022 109.255 59.5187 108.865 59.7519 108.515C59.994 108.157 60.3438 107.874 60.8011 107.668C61.2675 107.462 61.819 107.358 62.4557 107.358C63.3973 107.358 64.1372 107.592 64.6753 108.058C65.2223 108.524 65.5362 109.143 65.6169 109.914H63.4915C63.4556 109.654 63.339 109.448 63.1418 109.296C62.9534 109.143 62.7023 109.067 62.3885 109.067C62.1194 109.067 61.9132 109.121 61.7697 109.228C61.6262 109.327 61.5544 109.466 61.5544 109.645C61.5544 109.86 61.6665 110.022 61.8907 110.13C62.1239 110.237 62.4826 110.345 62.9669 110.452C63.5229 110.596 63.9758 110.739 64.3255 110.883C64.6753 111.017 64.9802 111.242 65.2402 111.555C65.5093 111.86 65.6483 112.273 65.6572 112.793C65.6572 113.232 65.5317 113.627 65.2806 113.977C65.0385 114.318 64.6842 114.587 64.2179 114.784C63.7605 114.981 63.227 115.08 62.6171 115.08ZM71.248 113.022V114.972H70.0777C69.2437 114.972 68.5936 114.77 68.1272 114.367C67.6609 113.954 67.4277 113.286 67.4277 112.363V109.376H66.513V107.466H67.4277V105.637H69.728V107.466H71.2346V109.376H69.728V112.389C69.728 112.614 69.7818 112.775 69.8894 112.874C69.997 112.972 70.1764 113.022 70.4275 113.022H71.248ZM72.072 111.206C72.072 110.434 72.2155 109.757 72.5024 109.174C72.7984 108.592 73.1974 108.143 73.6996 107.829C74.2018 107.515 74.7623 107.358 75.3811 107.358C75.9102 107.358 76.3721 107.466 76.7666 107.681C77.1702 107.897 77.4796 108.179 77.6948 108.529V107.466H79.9951V114.972H77.6948V113.909C77.4706 114.259 77.1567 114.542 76.7532 114.757C76.3586 114.972 75.8968 115.08 75.3677 115.08C74.7578 115.08 74.2018 114.923 73.6996 114.609C73.1974 114.286 72.7984 113.833 72.5024 113.25C72.2155 112.658 72.072 111.977 72.072 111.206ZM77.6948 111.219C77.6948 110.645 77.5334 110.192 77.2106 109.86C76.8967 109.529 76.5111 109.363 76.0537 109.363C75.5963 109.363 75.2062 109.529 74.8834 109.86C74.5695 110.183 74.4126 110.632 74.4126 111.206C74.4126 111.78 74.5695 112.237 74.8834 112.578C75.2062 112.91 75.5963 113.075 76.0537 113.075C76.5111 113.075 76.8967 112.91 77.2106 112.578C77.5334 112.246 77.6948 111.793 77.6948 111.219ZM83.9595 105.018V114.972H81.6592V105.018H83.9595ZM87.9267 105.018V114.972H85.6264V105.018H87.9267ZM102.022 107.385C102.955 107.385 103.694 107.668 104.242 108.233C104.798 108.798 105.076 109.582 105.076 110.587V114.972H102.789V110.896C102.789 110.412 102.659 110.04 102.399 109.78C102.148 109.511 101.798 109.376 101.349 109.376C100.901 109.376 100.547 109.511 100.287 109.78C100.036 110.04 99.91 110.412 99.91 110.896V114.972H97.6232V110.896C97.6232 110.412 97.4932 110.04 97.2331 109.78C96.982 109.511 96.6323 109.376 96.1839 109.376C95.7355 109.376 95.3813 109.511 95.1212 109.78C94.8701 110.04 94.7446 110.412 94.7446 110.896V114.972H92.4443V107.466H94.7446V108.408C94.9777 108.094 95.2826 107.847 95.6593 107.668C96.0359 107.48 96.4619 107.385 96.9372 107.385C97.5022 107.385 98.0044 107.506 98.4438 107.749C98.8922 107.991 99.2419 108.336 99.493 108.784C99.7531 108.372 100.107 108.036 100.556 107.775C101.004 107.515 101.493 107.385 102.022 107.385ZM106.227 111.206C106.227 110.434 106.37 109.757 106.657 109.174C106.953 108.592 107.352 108.143 107.855 107.829C108.357 107.515 108.917 107.358 109.536 107.358C110.065 107.358 110.527 107.466 110.922 107.681C111.325 107.897 111.635 108.179 111.85 108.529V107.466H114.15V114.972H111.85V113.909C111.626 114.259 111.312 114.542 110.908 114.757C110.514 114.972 110.052 115.08 109.523 115.08C108.913 115.08 108.357 114.923 107.855 114.609C107.352 114.286 106.953 113.833 106.657 113.25C106.37 112.658 106.227 111.977 106.227 111.206ZM111.85 111.219C111.85 110.645 111.688 110.192 111.366 109.86C111.052 109.529 110.666 109.363 110.209 109.363C109.751 109.363 109.361 109.529 109.038 109.86C108.724 110.183 108.568 110.632 108.568 111.206C108.568 111.78 108.724 112.237 109.038 112.578C109.361 112.91 109.751 113.075 110.209 113.075C110.666 113.075 111.052 112.91 111.366 112.578C111.688 112.246 111.85 111.793 111.85 111.219ZM119.998 113.022V114.972H118.827C117.993 114.972 117.343 114.77 116.877 114.367C116.411 113.954 116.177 113.286 116.177 112.363V109.376H115.263V107.466H116.177V105.637H118.478V107.466H119.984V109.376H118.478V112.389C118.478 112.614 118.531 112.775 118.639 112.874C118.747 112.972 118.926 113.022 119.177 113.022H119.998ZM128.355 111.098C128.355 111.313 128.341 111.537 128.314 111.771H123.108C123.144 112.237 123.292 112.596 123.552 112.847C123.821 113.089 124.149 113.21 124.534 113.21C125.108 113.21 125.507 112.968 125.732 112.484H128.18C128.054 112.977 127.826 113.421 127.494 113.815C127.171 114.21 126.763 114.519 126.27 114.743C125.776 114.968 125.225 115.08 124.615 115.08C123.88 115.08 123.225 114.923 122.651 114.609C122.077 114.295 121.629 113.847 121.306 113.264C120.983 112.681 120.822 111.999 120.822 111.219C120.822 110.439 120.979 109.757 121.292 109.174C121.615 108.592 122.064 108.143 122.638 107.829C123.212 107.515 123.871 107.358 124.615 107.358C125.341 107.358 125.987 107.511 126.552 107.816C127.117 108.121 127.556 108.556 127.87 109.121C128.193 109.686 128.355 110.345 128.355 111.098ZM126.001 110.493C126.001 110.098 125.866 109.784 125.597 109.551C125.328 109.318 124.992 109.201 124.588 109.201C124.202 109.201 123.875 109.313 123.606 109.538C123.346 109.762 123.185 110.08 123.122 110.493H126.001ZM131.868 108.717C132.137 108.305 132.474 107.982 132.877 107.749C133.281 107.506 133.729 107.385 134.222 107.385V109.82H133.59C133.016 109.82 132.586 109.946 132.299 110.197C132.012 110.439 131.868 110.869 131.868 111.488V114.972H129.568V107.466H131.868V108.717ZM136.479 106.686C136.075 106.686 135.743 106.569 135.483 106.336C135.232 106.094 135.107 105.798 135.107 105.448C135.107 105.09 135.232 104.794 135.483 104.56C135.743 104.318 136.075 104.197 136.479 104.197C136.873 104.197 137.196 104.318 137.447 104.56C137.707 104.794 137.837 105.09 137.837 105.448C137.837 105.798 137.707 106.094 137.447 106.336C137.196 106.569 136.873 106.686 136.479 106.686ZM137.622 107.466V114.972H135.322V107.466H137.622ZM138.832 111.206C138.832 110.434 138.975 109.757 139.262 109.174C139.558 108.592 139.957 108.143 140.459 107.829C140.962 107.515 141.522 107.358 142.141 107.358C142.67 107.358 143.132 107.466 143.526 107.681C143.93 107.897 144.239 108.179 144.455 108.529V107.466H146.755V114.972H144.455V113.909C144.23 114.259 143.917 114.542 143.513 114.757C143.118 114.972 142.657 115.08 142.127 115.08C141.518 115.08 140.962 114.923 140.459 114.609C139.957 114.286 139.558 113.833 139.262 113.25C138.975 112.658 138.832 111.977 138.832 111.206ZM144.455 111.219C144.455 110.645 144.293 110.192 143.97 109.86C143.656 109.529 143.271 109.363 142.814 109.363C142.356 109.363 141.966 109.529 141.643 109.86C141.329 110.183 141.172 110.632 141.172 111.206C141.172 111.78 141.329 112.237 141.643 112.578C141.966 112.91 142.356 113.075 142.814 113.075C143.271 113.075 143.656 112.91 143.97 112.578C144.293 112.246 144.455 111.793 144.455 111.219ZM150.719 105.018V114.972H148.419V105.018H150.719ZM155.44 115.08C154.785 115.08 154.202 114.968 153.691 114.743C153.18 114.519 152.776 114.214 152.48 113.829C152.184 113.434 152.019 112.995 151.983 112.51H154.256C154.283 112.771 154.404 112.981 154.619 113.143C154.834 113.304 155.099 113.385 155.413 113.385C155.7 113.385 155.92 113.331 156.072 113.223C156.233 113.107 156.314 112.959 156.314 112.78C156.314 112.564 156.202 112.407 155.978 112.309C155.754 112.201 155.39 112.085 154.888 111.959C154.35 111.833 153.902 111.703 153.543 111.569C153.184 111.425 152.875 111.206 152.615 110.91C152.355 110.605 152.225 110.197 152.225 109.686C152.225 109.255 152.341 108.865 152.575 108.515C152.817 108.157 153.166 107.874 153.624 107.668C154.09 107.462 154.642 107.358 155.278 107.358C156.22 107.358 156.96 107.592 157.498 108.058C158.045 108.524 158.359 109.143 158.44 109.914H156.314C156.278 109.654 156.162 109.448 155.964 109.296C155.776 109.143 155.525 109.067 155.211 109.067C154.942 109.067 154.736 109.121 154.592 109.228C154.449 109.327 154.377 109.466 154.377 109.645C154.377 109.86 154.489 110.022 154.713 110.13C154.947 110.237 155.305 110.345 155.79 110.452C156.346 110.596 156.798 110.739 157.148 110.883C157.498 111.017 157.803 111.242 158.063 111.555C158.332 111.86 158.471 112.273 158.48 112.793C158.48 113.232 158.354 113.627 158.103 113.977C157.861 114.318 157.507 114.587 157.041 114.784C156.583 114.981 156.05 115.08 155.44 115.08ZM162.28 111.206C162.28 110.434 162.424 109.757 162.711 109.174C163.007 108.592 163.406 108.143 163.908 107.829C164.41 107.515 164.971 107.358 165.59 107.358C166.119 107.358 166.581 107.466 166.975 107.681C167.379 107.897 167.688 108.179 167.903 108.529V107.466H170.204V114.972H167.903V113.909C167.679 114.259 167.365 114.542 166.962 114.757C166.567 114.972 166.105 115.08 165.576 115.08C164.966 115.08 164.41 114.923 163.908 114.609C163.406 114.286 163.007 113.833 162.711 113.25C162.424 112.658 162.28 111.977 162.28 111.206ZM167.903 111.219C167.903 110.645 167.742 110.192 167.419 109.86C167.105 109.529 166.72 109.363 166.262 109.363C165.805 109.363 165.415 109.529 165.092 109.86C164.778 110.183 164.621 110.632 164.621 111.206C164.621 111.78 164.778 112.237 165.092 112.578C165.415 112.91 165.805 113.075 166.262 113.075C166.72 113.075 167.105 112.91 167.419 112.578C167.742 112.246 167.903 111.793 167.903 111.219ZM176.441 107.385C177.32 107.385 178.02 107.672 178.54 108.246C179.069 108.811 179.333 109.591 179.333 110.587V114.972H177.047V110.896C177.047 110.394 176.917 110.004 176.657 109.726C176.396 109.448 176.047 109.309 175.607 109.309C175.168 109.309 174.818 109.448 174.558 109.726C174.298 110.004 174.168 110.394 174.168 110.896V114.972H171.868V107.466H174.168V108.461C174.401 108.13 174.715 107.87 175.11 107.681C175.504 107.484 175.948 107.385 176.441 107.385ZM180.475 111.206C180.475 110.434 180.618 109.757 180.905 109.174C181.201 108.592 181.6 108.143 182.102 107.829C182.604 107.515 183.165 107.358 183.784 107.358C184.277 107.358 184.725 107.462 185.129 107.668C185.541 107.874 185.864 108.152 186.097 108.502V105.018H188.398V114.972H186.097V113.896C185.882 114.255 185.573 114.542 185.169 114.757C184.775 114.972 184.313 115.08 183.784 115.08C183.165 115.08 182.604 114.923 182.102 114.609C181.6 114.286 181.201 113.833 180.905 113.25C180.618 112.658 180.475 111.977 180.475 111.206ZM186.097 111.219C186.097 110.645 185.936 110.192 185.613 109.86C185.299 109.529 184.914 109.363 184.456 109.363C183.999 109.363 183.609 109.529 183.286 109.86C182.972 110.183 182.815 110.632 182.815 111.206C182.815 111.78 182.972 112.237 183.286 112.578C183.609 112.91 183.999 113.075 184.456 113.075C184.914 113.075 185.299 112.91 185.613 112.578C185.936 112.246 186.097 111.793 186.097 111.219ZM199.988 111.098C199.988 111.313 199.975 111.537 199.948 111.771H194.742C194.778 112.237 194.926 112.596 195.186 112.847C195.455 113.089 195.782 113.21 196.168 113.21C196.742 113.21 197.141 112.968 197.365 112.484H199.813C199.688 112.977 199.459 113.421 199.127 113.815C198.804 114.21 198.396 114.519 197.903 114.743C197.41 114.968 196.858 115.08 196.248 115.08C195.513 115.08 194.858 114.923 194.285 114.609C193.711 114.295 193.262 113.847 192.939 113.264C192.616 112.681 192.455 111.999 192.455 111.219C192.455 110.439 192.612 109.757 192.926 109.174C193.249 108.592 193.697 108.143 194.271 107.829C194.845 107.515 195.504 107.358 196.248 107.358C196.975 107.358 197.621 107.511 198.186 107.816C198.751 108.121 199.19 108.556 199.504 109.121C199.827 109.686 199.988 110.345 199.988 111.098ZM197.634 110.493C197.634 110.098 197.499 109.784 197.23 109.551C196.961 109.318 196.625 109.201 196.222 109.201C195.836 109.201 195.509 109.313 195.24 109.538C194.98 109.762 194.818 110.08 194.755 110.493H197.634ZM203.502 105.018V114.972H201.202V105.018H203.502ZM212.244 111.098C212.244 111.313 212.231 111.537 212.204 111.771H206.998C207.034 112.237 207.182 112.596 207.442 112.847C207.711 113.089 208.039 113.21 208.424 113.21C208.998 113.21 209.397 112.968 209.621 112.484H212.07C211.944 112.977 211.715 113.421 211.384 113.815C211.061 114.21 210.653 114.519 210.159 114.743C209.666 114.968 209.115 115.08 208.505 115.08C207.769 115.08 207.115 114.923 206.541 114.609C205.967 114.295 205.519 113.847 205.196 113.264C204.873 112.681 204.711 111.999 204.711 111.219C204.711 110.439 204.868 109.757 205.182 109.174C205.505 108.592 205.953 108.143 206.527 107.829C207.101 107.515 207.761 107.358 208.505 107.358C209.231 107.358 209.877 107.511 210.442 107.816C211.007 108.121 211.446 108.556 211.76 109.121C212.083 109.686 212.244 110.345 212.244 111.098ZM209.89 110.493C209.89 110.098 209.756 109.784 209.487 109.551C209.218 109.318 208.882 109.201 208.478 109.201C208.092 109.201 207.765 109.313 207.496 109.538C207.236 109.762 207.074 110.08 207.012 110.493H209.89ZM223.036 107.385C223.968 107.385 224.708 107.668 225.255 108.233C225.811 108.798 226.089 109.582 226.089 110.587V114.972H223.802V110.896C223.802 110.412 223.672 110.04 223.412 109.78C223.161 109.511 222.811 109.376 222.363 109.376C221.915 109.376 221.56 109.511 221.3 109.78C221.049 110.04 220.924 110.412 220.924 110.896V114.972H218.637V110.896C218.637 110.412 218.507 110.04 218.247 109.78C217.996 109.511 217.646 109.376 217.198 109.376C216.749 109.376 216.395 109.511 216.135 109.78C215.884 110.04 215.758 110.412 215.758 110.896V114.972H213.458V107.466H215.758V108.408C215.991 108.094 216.296 107.847 216.673 107.668C217.05 107.48 217.476 107.385 217.951 107.385C218.516 107.385 219.018 107.506 219.457 107.749C219.906 107.991 220.256 108.336 220.507 108.784C220.767 108.372 221.121 108.036 221.569 107.775C222.018 107.515 222.507 107.385 223.036 107.385ZM234.774 111.098C234.774 111.313 234.76 111.537 234.733 111.771H229.527C229.563 112.237 229.711 112.596 229.971 112.847C230.24 113.089 230.568 113.21 230.953 113.21C231.527 113.21 231.926 112.968 232.15 112.484H234.599C234.473 112.977 234.244 113.421 233.913 113.815C233.59 114.21 233.182 114.519 232.689 114.743C232.195 114.968 231.644 115.08 231.034 115.08C230.299 115.08 229.644 114.923 229.07 114.609C228.496 114.295 228.048 113.847 227.725 113.264C227.402 112.681 227.241 111.999 227.241 111.219C227.241 110.439 227.398 109.757 227.711 109.174C228.034 108.592 228.483 108.143 229.057 107.829C229.631 107.515 230.29 107.358 231.034 107.358C231.76 107.358 232.406 107.511 232.971 107.816C233.536 108.121 233.975 108.556 234.289 109.121C234.612 109.686 234.774 110.345 234.774 111.098ZM232.42 110.493C232.42 110.098 232.285 109.784 232.016 109.551C231.747 109.318 231.411 109.201 231.007 109.201C230.621 109.201 230.294 109.313 230.025 109.538C229.765 109.762 229.604 110.08 229.541 110.493H232.42ZM240.561 107.385C241.44 107.385 242.139 107.672 242.659 108.246C243.188 108.811 243.453 109.591 243.453 110.587V114.972H241.166V110.896C241.166 110.394 241.036 110.004 240.776 109.726C240.516 109.448 240.166 109.309 239.727 109.309C239.287 109.309 238.938 109.448 238.677 109.726C238.417 110.004 238.287 110.394 238.287 110.896V114.972H235.987V107.466H238.287V108.461C238.52 108.13 238.834 107.87 239.229 107.681C239.624 107.484 240.067 107.385 240.561 107.385ZM249.235 113.022V114.972H248.064C247.23 114.972 246.58 114.77 246.114 114.367C245.648 113.954 245.414 113.286 245.414 112.363V109.376H244.5V107.466H245.414V105.637H247.715V107.466H249.221V109.376H247.715V112.389C247.715 112.614 247.769 112.775 247.876 112.874C247.984 112.972 248.163 113.022 248.414 113.022H249.235ZM253.57 115.08C252.915 115.08 252.332 114.968 251.821 114.743C251.31 114.519 250.906 114.214 250.61 113.829C250.314 113.434 250.148 112.995 250.113 112.51H252.386C252.413 112.771 252.534 112.981 252.749 113.143C252.964 113.304 253.229 113.385 253.543 113.385C253.83 113.385 254.049 113.331 254.202 113.223C254.363 113.107 254.444 112.959 254.444 112.78C254.444 112.564 254.332 112.407 254.108 112.309C253.884 112.201 253.52 112.085 253.018 111.959C252.48 111.833 252.032 111.703 251.673 111.569C251.314 111.425 251.005 111.206 250.745 110.91C250.485 110.605 250.355 110.197 250.355 109.686C250.355 109.255 250.471 108.865 250.704 108.515C250.947 108.157 251.296 107.874 251.754 107.668C252.22 107.462 252.771 107.358 253.408 107.358C254.35 107.358 255.09 107.592 255.628 108.058C256.175 108.524 256.489 109.143 256.569 109.914H254.444C254.408 109.654 254.292 109.448 254.094 109.296C253.906 109.143 253.655 109.067 253.341 109.067C253.072 109.067 252.866 109.121 252.722 109.228C252.579 109.327 252.507 109.466 252.507 109.645C252.507 109.86 252.619 110.022 252.843 110.13C253.076 110.237 253.435 110.345 253.919 110.452C254.475 110.596 254.928 110.739 255.278 110.883C255.628 111.017 255.933 111.242 256.193 111.555C256.462 111.86 256.601 112.273 256.61 112.793C256.61 113.232 256.484 113.627 256.233 113.977C255.991 114.318 255.637 114.587 255.17 114.784C254.713 114.981 254.179 115.08 253.57 115.08ZM262.025 106.686C261.621 106.686 261.289 106.569 261.029 106.336C260.778 106.094 260.652 105.798 260.652 105.448C260.652 105.09 260.778 104.794 261.029 104.56C261.289 104.318 261.621 104.197 262.025 104.197C262.419 104.197 262.742 104.318 262.993 104.56C263.253 104.794 263.383 105.09 263.383 105.448C263.383 105.798 263.253 106.094 262.993 106.336C262.742 106.569 262.419 106.686 262.025 106.686ZM263.168 107.466V114.972H260.868V107.466H263.168ZM269.408 107.385C270.287 107.385 270.987 107.672 271.507 108.246C272.036 108.811 272.301 109.591 272.301 110.587V114.972H270.014V110.896C270.014 110.394 269.884 110.004 269.624 109.726C269.364 109.448 269.014 109.309 268.574 109.309C268.135 109.309 267.785 109.448 267.525 109.726C267.265 110.004 267.135 110.394 267.135 110.896V114.972H264.835V107.466H267.135V108.461C267.368 108.13 267.682 107.87 268.077 107.681C268.471 107.484 268.915 107.385 269.408 107.385ZM280.933 113.022V114.972H279.763C278.929 114.972 278.279 114.77 277.812 114.367C277.346 113.954 277.113 113.286 277.113 112.363V109.376H276.198V107.466H277.113V105.637H279.413V107.466H280.92V109.376H279.413V112.389C279.413 112.614 279.467 112.775 279.575 112.874C279.682 112.972 279.862 113.022 280.113 113.022H280.933ZM286.828 107.385C287.689 107.385 288.38 107.672 288.9 108.246C289.42 108.811 289.68 109.591 289.68 110.587V114.972H287.393V110.896C287.393 110.394 287.263 110.004 287.003 109.726C286.743 109.448 286.394 109.309 285.954 109.309C285.515 109.309 285.165 109.448 284.905 109.726C284.645 110.004 284.515 110.394 284.515 110.896V114.972H282.215V105.018H284.515V108.475C284.748 108.143 285.066 107.879 285.47 107.681C285.873 107.484 286.326 107.385 286.828 107.385ZM298.354 111.098C298.354 111.313 298.341 111.537 298.314 111.771H293.108C293.144 112.237 293.292 112.596 293.552 112.847C293.821 113.089 294.148 113.21 294.534 113.21C295.108 113.21 295.507 112.968 295.731 112.484H298.179C298.054 112.977 297.825 113.421 297.493 113.815C297.171 114.21 296.763 114.519 296.269 114.743C295.776 114.968 295.225 115.08 294.615 115.08C293.879 115.08 293.225 114.923 292.651 114.609C292.077 114.295 291.628 113.847 291.306 113.264C290.983 112.681 290.821 111.999 290.821 111.219C290.821 110.439 290.978 109.757 291.292 109.174C291.615 108.592 292.063 108.143 292.637 107.829C293.211 107.515 293.87 107.358 294.615 107.358C295.341 107.358 295.987 107.511 296.552 107.816C297.117 108.121 297.556 108.556 297.87 109.121C298.193 109.686 298.354 110.345 298.354 111.098ZM296 110.493C296 110.098 295.866 109.784 295.597 109.551C295.328 109.318 294.991 109.201 294.588 109.201C294.202 109.201 293.875 109.313 293.606 109.538C293.346 109.762 293.184 110.08 293.122 110.493H296ZM305.472 115.08C304.817 115.08 304.234 114.968 303.723 114.743C303.212 114.519 302.809 114.214 302.513 113.829C302.217 113.434 302.051 112.995 302.015 112.51H304.288C304.315 112.771 304.436 112.981 304.651 113.143C304.867 113.304 305.131 113.385 305.445 113.385C305.732 113.385 305.952 113.331 306.104 113.223C306.266 113.107 306.346 112.959 306.346 112.78C306.346 112.564 306.234 112.407 306.01 112.309C305.786 112.201 305.423 112.085 304.921 111.959C304.382 111.833 303.934 111.703 303.575 111.569C303.217 111.425 302.907 111.206 302.647 110.91C302.387 110.605 302.257 110.197 302.257 109.686C302.257 109.255 302.374 108.865 302.607 108.515C302.849 108.157 303.199 107.874 303.656 107.668C304.122 107.462 304.674 107.358 305.311 107.358C306.252 107.358 306.992 107.592 307.53 108.058C308.077 108.524 308.391 109.143 308.472 109.914H306.346C306.311 109.654 306.194 109.448 305.997 109.296C305.808 109.143 305.557 109.067 305.243 109.067C304.974 109.067 304.768 109.121 304.625 109.228C304.481 109.327 304.409 109.466 304.409 109.645C304.409 109.86 304.521 110.022 304.746 110.13C304.979 110.237 305.338 110.345 305.822 110.452C306.378 110.596 306.831 110.739 307.18 110.883C307.53 111.017 307.835 111.242 308.095 111.555C308.364 111.86 308.503 112.273 308.512 112.793C308.512 113.232 308.387 113.627 308.135 113.977C307.893 114.318 307.539 114.587 307.073 114.784C306.615 114.981 306.082 115.08 305.472 115.08ZM312.22 108.529C312.444 108.179 312.753 107.897 313.148 107.681C313.542 107.466 314.004 107.358 314.533 107.358C315.152 107.358 315.713 107.515 316.215 107.829C316.717 108.143 317.112 108.592 317.399 109.174C317.695 109.757 317.843 110.434 317.843 111.206C317.843 111.977 317.695 112.658 317.399 113.25C317.112 113.833 316.717 114.286 316.215 114.609C315.713 114.923 315.152 115.08 314.533 115.08C314.013 115.08 313.551 114.972 313.148 114.757C312.753 114.542 312.444 114.264 312.22 113.923V118.55H309.919V107.466H312.22V108.529ZM315.502 111.206C315.502 110.632 315.34 110.183 315.018 109.86C314.704 109.529 314.314 109.363 313.847 109.363C313.39 109.363 313 109.529 312.677 109.86C312.363 110.192 312.206 110.645 312.206 111.219C312.206 111.793 312.363 112.246 312.677 112.578C313 112.91 313.39 113.075 313.847 113.075C314.305 113.075 314.695 112.91 315.018 112.578C315.34 112.237 315.502 111.78 315.502 111.206ZM318.592 111.206C318.592 110.434 318.735 109.757 319.022 109.174C319.318 108.592 319.717 108.143 320.22 107.829C320.722 107.515 321.282 107.358 321.901 107.358C322.43 107.358 322.892 107.466 323.287 107.681C323.69 107.897 324 108.179 324.215 108.529V107.466H326.515V114.972H324.215V113.909C323.991 114.259 323.677 114.542 323.273 114.757C322.879 114.972 322.417 115.08 321.888 115.08C321.278 115.08 320.722 114.923 320.22 114.609C319.717 114.286 319.318 113.833 319.022 113.25C318.735 112.658 318.592 111.977 318.592 111.206ZM324.215 111.219C324.215 110.645 324.053 110.192 323.731 109.86C323.417 109.529 323.031 109.363 322.574 109.363C322.116 109.363 321.726 109.529 321.403 109.86C321.09 110.183 320.933 110.632 320.933 111.206C320.933 111.78 321.09 112.237 321.403 112.578C321.726 112.91 322.116 113.075 322.574 113.075C323.031 113.075 323.417 112.91 323.731 112.578C324.053 112.246 324.215 111.793 324.215 111.219ZM327.722 111.219C327.722 110.439 327.879 109.757 328.193 109.174C328.516 108.592 328.959 108.143 329.524 107.829C330.098 107.515 330.753 107.358 331.488 107.358C332.43 107.358 333.215 107.605 333.842 108.098C334.479 108.592 334.896 109.287 335.093 110.183H332.645C332.439 109.609 332.04 109.322 331.448 109.322C331.027 109.322 330.69 109.488 330.439 109.82C330.188 110.143 330.062 110.609 330.062 111.219C330.062 111.829 330.188 112.3 330.439 112.632C330.69 112.954 331.027 113.116 331.448 113.116C332.04 113.116 332.439 112.829 332.645 112.255H335.093C334.896 113.134 334.479 113.824 333.842 114.326C333.206 114.829 332.421 115.08 331.488 115.08C330.753 115.08 330.098 114.923 329.524 114.609C328.959 114.295 328.516 113.847 328.193 113.264C327.879 112.681 327.722 111.999 327.722 111.219ZM343.399 111.098C343.399 111.313 343.386 111.537 343.359 111.771H338.153C338.189 112.237 338.337 112.596 338.597 112.847C338.866 113.089 339.194 113.21 339.579 113.21C340.153 113.21 340.552 112.968 340.776 112.484H343.225C343.099 112.977 342.87 113.421 342.539 113.815C342.216 114.21 341.808 114.519 341.314 114.743C340.821 114.968 340.27 115.08 339.66 115.08C338.925 115.08 338.27 114.923 337.696 114.609C337.122 114.295 336.674 113.847 336.351 113.264C336.028 112.681 335.866 111.999 335.866 111.219C335.866 110.439 336.023 109.757 336.337 109.174C336.66 108.592 337.109 108.143 337.682 107.829C338.256 107.515 338.916 107.358 339.66 107.358C340.386 107.358 341.032 107.511 341.597 107.816C342.162 108.121 342.601 108.556 342.915 109.121C343.238 109.686 343.399 110.345 343.399 111.098ZM341.045 110.493C341.045 110.098 340.911 109.784 340.642 109.551C340.373 109.318 340.037 109.201 339.633 109.201C339.247 109.201 338.92 109.313 338.651 109.538C338.391 109.762 338.23 110.08 338.167 110.493H341.045ZM345.689 115.08C345.286 115.08 344.954 114.963 344.694 114.73C344.443 114.488 344.317 114.192 344.317 113.842C344.317 113.484 344.443 113.183 344.694 112.941C344.954 112.699 345.286 112.578 345.689 112.578C346.084 112.578 346.407 112.699 346.658 112.941C346.918 113.183 347.048 113.484 347.048 113.842C347.048 114.192 346.918 114.488 346.658 114.73C346.407 114.963 346.084 115.08 345.689 115.08Z" fill="#333333"/>
<path d="M52.069 161.692L50.1057 158.129H49.5544V161.692H47.2549V152.252H51.1143C51.8584 152.252 52.4904 152.382 53.0104 152.642C53.5393 152.902 53.9337 153.261 54.1937 153.718C54.4537 154.166 54.5837 154.668 54.5837 155.224C54.5837 155.852 54.4044 156.412 54.0458 156.905C53.6962 157.398 53.1762 157.748 52.4859 157.954L54.6644 161.692H52.069ZM49.5544 156.502H50.9798C51.4012 156.502 51.7149 156.399 51.9211 156.192C52.1363 155.986 52.2439 155.695 52.2439 155.318C52.2439 154.96 52.1363 154.677 51.9211 154.471C51.7149 154.265 51.4012 154.162 50.9798 154.162H49.5544V156.502ZM63.1004 157.82C63.1004 158.035 63.087 158.259 63.0601 158.492H57.856C57.8919 158.958 58.0398 159.317 58.2998 159.568C58.5687 159.81 58.8959 159.931 59.2814 159.931C59.8552 159.931 60.2541 159.689 60.4782 159.205H62.9256C62.8001 159.698 62.5715 160.141 62.2398 160.536C61.9171 160.93 61.5092 161.24 61.0161 161.464C60.523 161.688 59.9717 161.8 59.3621 161.8C58.627 161.8 57.9725 161.643 57.3988 161.329C56.825 161.016 56.3768 160.567 56.0541 159.985C55.7313 159.402 55.57 158.721 55.57 157.941C55.57 157.161 55.7269 156.479 56.0406 155.897C56.3634 155.314 56.8116 154.866 57.3853 154.552C57.9591 154.238 58.618 154.081 59.3621 154.081C60.0883 154.081 60.7337 154.234 61.2985 154.538C61.8633 154.843 62.3026 155.278 62.6163 155.843C62.9391 156.408 63.1004 157.067 63.1004 157.82ZM60.7472 157.214C60.7472 156.82 60.6127 156.506 60.3438 156.273C60.0748 156.04 59.7386 155.923 59.3352 155.923C58.9497 155.923 58.6225 156.036 58.3536 156.26C58.0936 156.484 57.9322 156.802 57.8695 157.214H60.7472ZM67.6888 159.541L69.3159 154.189H71.7633L69.1008 161.692H66.2634L63.6008 154.189H66.0617L67.6888 159.541ZM73.8877 153.409C73.4843 153.409 73.1526 153.292 72.8926 153.059C72.6416 152.817 72.5161 152.521 72.5161 152.172C72.5161 151.813 72.6416 151.517 72.8926 151.284C73.1526 151.042 73.4843 150.921 73.8877 150.921C74.2821 150.921 74.6049 151.042 74.8559 151.284C75.1159 151.517 75.2459 151.813 75.2459 152.172C75.2459 152.521 75.1159 152.817 74.8559 153.059C74.6049 153.292 74.2821 153.409 73.8877 153.409ZM75.0307 154.189V161.692H72.7312V154.189H75.0307ZM83.7704 157.82C83.7704 158.035 83.7569 158.259 83.7301 158.492H78.526C78.5618 158.958 78.7097 159.317 78.9697 159.568C79.2387 159.81 79.5659 159.931 79.9514 159.931C80.5251 159.931 80.9241 159.689 81.1482 159.205H83.5956C83.4701 159.698 83.2415 160.141 82.9098 160.536C82.587 160.93 82.1791 161.24 81.6861 161.464C81.193 161.688 80.6417 161.8 80.032 161.8C79.2969 161.8 78.6425 161.643 78.0687 161.329C77.495 161.016 77.0468 160.567 76.724 159.985C76.4013 159.402 76.2399 158.721 76.2399 157.941C76.2399 157.161 76.3968 156.479 76.7106 155.897C77.0333 155.314 77.4815 154.866 78.0553 154.552C78.629 154.238 79.288 154.081 80.032 154.081C80.7582 154.081 81.4037 154.234 81.9685 154.538C82.5332 154.843 82.9725 155.278 83.2863 155.843C83.609 156.408 83.7704 157.067 83.7704 157.82ZM81.4171 157.214C81.4171 156.82 81.2826 156.506 81.0137 156.273C80.7448 156.04 80.4086 155.923 80.0052 155.923C79.6197 155.923 79.2924 156.036 79.0235 156.26C78.7635 156.484 78.6022 156.802 78.5394 157.214H81.4171ZM95.7548 154.189L93.7242 161.692H91.1827L89.9993 156.824L88.7756 161.692H86.2475L84.2035 154.189H86.503L87.5654 159.554L88.8294 154.189H91.2634L92.5409 159.527L93.5897 154.189H95.7548ZM99.0241 157.927C99.0241 157.156 99.1676 156.479 99.4544 155.897C99.7503 155.314 100.149 154.866 100.651 154.552C101.153 154.238 101.714 154.081 102.332 154.081C102.861 154.081 103.323 154.189 103.717 154.404C104.121 154.619 104.43 154.902 104.645 155.251V154.189H106.945V161.692H104.645V160.63C104.421 160.98 104.107 161.262 103.704 161.477C103.309 161.692 102.848 161.8 102.319 161.8C101.709 161.8 101.153 161.643 100.651 161.329C100.149 161.007 99.7503 160.554 99.4544 159.971C99.1676 159.379 99.0241 158.698 99.0241 157.927ZM104.645 157.941C104.645 157.367 104.484 156.914 104.161 156.582C103.847 156.251 103.462 156.085 103.005 156.085C102.547 156.085 102.157 156.251 101.835 156.582C101.521 156.905 101.364 157.353 101.364 157.927C101.364 158.501 101.521 158.958 101.835 159.299C102.157 159.63 102.547 159.796 103.005 159.796C103.462 159.796 103.847 159.63 104.161 159.299C104.484 158.967 104.645 158.514 104.645 157.941ZM113.18 154.108C114.059 154.108 114.758 154.395 115.278 154.969C115.807 155.534 116.071 156.313 116.071 157.309V161.692H113.785V157.618C113.785 157.116 113.655 156.726 113.395 156.448C113.135 156.17 112.786 156.031 112.347 156.031C111.907 156.031 111.558 156.17 111.298 156.448C111.038 156.726 110.908 157.116 110.908 157.618V161.692H108.608V154.189H110.908V155.184C111.141 154.852 111.455 154.592 111.849 154.404C112.243 154.207 112.687 154.108 113.18 154.108ZM117.212 157.927C117.212 157.156 117.356 156.479 117.642 155.897C117.938 155.314 118.337 154.866 118.839 154.552C119.341 154.238 119.902 154.081 120.52 154.081C121.013 154.081 121.461 154.184 121.865 154.391C122.277 154.597 122.6 154.875 122.833 155.224V151.741H125.133V161.692H122.833V160.617C122.618 160.975 122.309 161.262 121.905 161.477C121.511 161.692 121.049 161.8 120.52 161.8C119.902 161.8 119.341 161.643 118.839 161.329C118.337 161.007 117.938 160.554 117.642 159.971C117.356 159.379 117.212 158.698 117.212 157.927ZM122.833 157.941C122.833 157.367 122.672 156.914 122.349 156.582C122.035 156.251 121.65 156.085 121.193 156.085C120.735 156.085 120.345 156.251 120.023 156.582C119.709 156.905 119.552 157.353 119.552 157.927C119.552 158.501 119.709 158.958 120.023 159.299C120.345 159.63 120.735 159.796 121.193 159.796C121.65 159.796 122.035 159.63 122.349 159.299C122.672 158.967 122.833 158.514 122.833 157.941ZM139.22 154.108C140.153 154.108 140.892 154.391 141.439 154.955C141.995 155.52 142.273 156.305 142.273 157.309V161.692H139.987V157.618C139.987 157.134 139.857 156.762 139.597 156.502C139.346 156.233 138.996 156.098 138.548 156.098C138.1 156.098 137.746 156.233 137.486 156.502C137.235 156.762 137.109 157.134 137.109 157.618V161.692H134.823V157.618C134.823 157.134 134.693 156.762 134.433 156.502C134.182 156.233 133.832 156.098 133.384 156.098C132.936 156.098 132.582 156.233 132.322 156.502C132.071 156.762 131.945 157.134 131.945 157.618V161.692H129.646V154.189H131.945V155.13C132.178 154.816 132.483 154.57 132.86 154.391C133.236 154.202 133.662 154.108 134.137 154.108C134.702 154.108 135.204 154.229 135.643 154.471C136.092 154.713 136.441 155.058 136.692 155.507C136.952 155.094 137.306 154.758 137.755 154.498C138.203 154.238 138.691 154.108 139.22 154.108ZM143.424 157.927C143.424 157.156 143.567 156.479 143.854 155.897C144.15 155.314 144.549 154.866 145.051 154.552C145.553 154.238 146.113 154.081 146.732 154.081C147.261 154.081 147.722 154.189 148.117 154.404C148.52 154.619 148.83 154.902 149.045 155.251V154.189H151.344V161.692H149.045V160.63C148.821 160.98 148.507 161.262 148.103 161.477C147.709 161.692 147.247 161.8 146.718 161.8C146.109 161.8 145.553 161.643 145.051 161.329C144.549 161.007 144.15 160.554 143.854 159.971C143.567 159.379 143.424 158.698 143.424 157.927ZM149.045 157.941C149.045 157.367 148.883 156.914 148.561 156.582C148.247 156.251 147.861 156.085 147.404 156.085C146.947 156.085 146.557 156.251 146.234 156.582C145.921 156.905 145.764 157.353 145.764 157.927C145.764 158.501 145.921 158.958 146.234 159.299C146.557 159.63 146.947 159.796 147.404 159.796C147.861 159.796 148.247 159.63 148.561 159.299C148.883 158.967 149.045 158.514 149.045 157.941ZM157.593 161.692L155.307 158.546V161.692H153.008V151.741H155.307V157.241L157.58 154.189H160.417L157.298 157.954L160.444 161.692H157.593ZM168.394 157.82C168.394 158.035 168.38 158.259 168.353 158.492H163.149C163.185 158.958 163.333 159.317 163.593 159.568C163.862 159.81 164.189 159.931 164.575 159.931C165.148 159.931 165.547 159.689 165.772 159.205H168.219C168.093 159.698 167.865 160.141 167.533 160.536C167.21 160.93 166.802 161.24 166.309 161.464C165.816 161.688 165.265 161.8 164.655 161.8C163.92 161.8 163.266 161.643 162.692 161.329C162.118 161.016 161.67 160.567 161.347 159.985C161.025 159.402 160.863 158.721 160.863 157.941C160.863 157.161 161.02 156.479 161.334 155.897C161.657 155.314 162.105 154.866 162.679 154.552C163.252 154.238 163.911 154.081 164.655 154.081C165.382 154.081 166.027 154.234 166.592 154.538C167.157 154.843 167.596 155.278 167.91 155.843C168.232 156.408 168.394 157.067 168.394 157.82ZM166.04 157.214C166.04 156.82 165.906 156.506 165.637 156.273C165.368 156.04 165.032 155.923 164.629 155.923C164.243 155.923 163.916 156.036 163.647 156.26C163.387 156.484 163.226 156.802 163.163 157.214H166.04ZM176.222 156.098H174.985V161.692H172.685V156.098H171.851V154.189H172.685V153.974C172.685 153.05 172.95 152.351 173.478 151.876C174.007 151.392 174.783 151.15 175.805 151.15C175.975 151.15 176.101 151.154 176.181 151.163V153.113C175.742 153.086 175.433 153.149 175.254 153.301C175.074 153.454 174.985 153.727 174.985 154.122V154.189H176.222V156.098ZM178.459 153.409C178.055 153.409 177.724 153.292 177.464 153.059C177.213 152.817 177.087 152.521 177.087 152.172C177.087 151.813 177.213 151.517 177.464 151.284C177.724 151.042 178.055 150.921 178.459 150.921C178.853 150.921 179.176 151.042 179.427 151.284C179.687 151.517 179.817 151.813 179.817 152.172C179.817 152.521 179.687 152.817 179.427 153.059C179.176 153.292 178.853 153.409 178.459 153.409ZM179.602 154.189V161.692H177.302V154.189H179.602ZM185.84 154.108C186.719 154.108 187.418 154.395 187.938 154.969C188.467 155.534 188.731 156.313 188.731 157.309V161.692H186.445V157.618C186.445 157.116 186.315 156.726 186.055 156.448C185.795 156.17 185.446 156.031 185.006 156.031C184.567 156.031 184.218 156.17 183.958 156.448C183.698 156.726 183.568 157.116 183.568 157.618V161.692H181.268V154.189H183.568V155.184C183.801 154.852 184.114 154.592 184.509 154.404C184.903 154.207 185.347 154.108 185.84 154.108ZM189.872 157.927C189.872 157.156 190.016 156.479 190.302 155.897C190.598 155.314 190.997 154.866 191.499 154.552C192.001 154.238 192.562 154.081 193.18 154.081C193.709 154.081 194.171 154.189 194.565 154.404C194.969 154.619 195.278 154.902 195.493 155.251V154.189H197.793V161.692H195.493V160.63C195.269 160.98 194.955 161.262 194.552 161.477C194.157 161.692 193.696 161.8 193.167 161.8C192.557 161.8 192.001 161.643 191.499 161.329C190.997 161.007 190.598 160.554 190.302 159.971C190.016 159.379 189.872 158.698 189.872 157.927ZM195.493 157.941C195.493 157.367 195.332 156.914 195.009 156.582C194.695 156.251 194.31 156.085 193.852 156.085C193.395 156.085 193.005 156.251 192.683 156.582C192.369 156.905 192.212 157.353 192.212 157.927C192.212 158.501 192.369 158.958 192.683 159.299C193.005 159.63 193.395 159.796 193.852 159.796C194.31 159.796 194.695 159.63 195.009 159.299C195.332 158.967 195.493 158.514 195.493 157.941ZM201.756 151.741V161.692H199.456V151.741H201.756ZM210.454 159.743V161.692H209.284C208.45 161.692 207.8 161.491 207.334 161.087C206.868 160.675 206.635 160.007 206.635 159.084V156.098H205.72V154.189H206.635V152.36H208.934V154.189H210.44V156.098H208.934V159.111C208.934 159.335 208.988 159.496 209.096 159.595C209.203 159.693 209.383 159.743 209.634 159.743H210.454ZM215.15 161.8C214.415 161.8 213.752 161.643 213.16 161.329C212.577 161.016 212.116 160.567 211.775 159.985C211.443 159.402 211.277 158.721 211.277 157.941C211.277 157.17 211.448 156.493 211.788 155.91C212.129 155.318 212.595 154.866 213.187 154.552C213.779 154.238 214.442 154.081 215.177 154.081C215.912 154.081 216.576 154.238 217.167 154.552C217.759 154.866 218.225 155.318 218.566 155.91C218.907 156.493 219.077 157.17 219.077 157.941C219.077 158.712 218.902 159.393 218.552 159.985C218.212 160.567 217.741 161.016 217.14 161.329C216.549 161.643 215.885 161.8 215.15 161.8ZM215.15 159.81C215.59 159.81 215.962 159.648 216.266 159.326C216.58 159.003 216.737 158.541 216.737 157.941C216.737 157.34 216.585 156.878 216.28 156.556C215.984 156.233 215.616 156.071 215.177 156.071C214.729 156.071 214.357 156.233 214.061 156.556C213.765 156.869 213.617 157.331 213.617 157.941C213.617 158.541 213.761 159.003 214.048 159.326C214.343 159.648 214.711 159.81 215.15 159.81ZM227.706 154.189V161.692H225.407V160.67C225.174 161.002 224.855 161.271 224.452 161.477C224.058 161.674 223.618 161.773 223.134 161.773C222.56 161.773 222.054 161.648 221.615 161.397C221.175 161.137 220.835 160.765 220.593 160.28C220.351 159.796 220.23 159.227 220.23 158.573V154.189H222.516V158.263C222.516 158.765 222.646 159.155 222.906 159.433C223.166 159.711 223.515 159.85 223.954 159.85C224.403 159.85 224.757 159.711 225.017 159.433C225.277 159.155 225.407 158.765 225.407 158.263V154.189H227.706ZM228.901 157.941C228.901 157.161 229.058 156.479 229.371 155.897C229.694 155.314 230.138 154.866 230.703 154.552C231.276 154.238 231.931 154.081 232.666 154.081C233.607 154.081 234.392 154.328 235.019 154.821C235.656 155.314 236.073 156.009 236.27 156.905H233.822C233.616 156.331 233.217 156.045 232.626 156.045C232.204 156.045 231.868 156.21 231.617 156.542C231.366 156.865 231.241 157.331 231.241 157.941C231.241 158.55 231.366 159.021 231.617 159.353C231.868 159.675 232.204 159.837 232.626 159.837C233.217 159.837 233.616 159.55 233.822 158.976H236.27C236.073 159.855 235.656 160.545 235.019 161.047C234.383 161.549 233.598 161.8 232.666 161.8C231.931 161.8 231.276 161.643 230.703 161.329C230.138 161.016 229.694 160.567 229.371 159.985C229.058 159.402 228.901 158.721 228.901 157.941ZM242.112 154.108C242.973 154.108 243.663 154.395 244.183 154.969C244.703 155.534 244.963 156.313 244.963 157.309V161.692H242.677V157.618C242.677 157.116 242.547 156.726 242.287 156.448C242.027 156.17 241.677 156.031 241.238 156.031C240.799 156.031 240.449 156.17 240.189 156.448C239.929 156.726 239.799 157.116 239.799 157.618V161.692H237.5V151.741H239.799V155.197C240.032 154.866 240.351 154.601 240.754 154.404C241.158 154.207 241.61 154.108 242.112 154.108ZM253.634 157.82C253.634 158.035 253.621 158.259 253.594 158.492H248.39C248.426 158.958 248.574 159.317 248.834 159.568C249.103 159.81 249.43 159.931 249.815 159.931C250.389 159.931 250.788 159.689 251.012 159.205H253.459C253.334 159.698 253.105 160.141 252.774 160.536C252.451 160.93 252.043 161.24 251.55 161.464C251.057 161.688 250.506 161.8 249.896 161.8C249.161 161.8 248.506 161.643 247.933 161.329C247.359 161.016 246.911 160.567 246.588 159.985C246.265 159.402 246.104 158.721 246.104 157.941C246.104 157.161 246.261 156.479 246.574 155.897C246.897 155.314 247.345 154.866 247.919 154.552C248.493 154.238 249.152 154.081 249.896 154.081C250.622 154.081 251.268 154.234 251.832 154.538C252.397 154.843 252.836 155.278 253.15 155.843C253.473 156.408 253.634 157.067 253.634 157.82ZM251.281 157.214C251.281 156.82 251.147 156.506 250.878 156.273C250.609 156.04 250.272 155.923 249.869 155.923C249.484 155.923 249.156 156.036 248.887 156.26C248.627 156.484 248.466 156.802 248.403 157.214H251.281ZM257.9 161.8C257.245 161.8 256.663 161.688 256.152 161.464C255.641 161.24 255.237 160.935 254.942 160.549C254.646 160.155 254.48 159.716 254.444 159.232H256.717C256.743 159.492 256.864 159.702 257.08 159.864C257.295 160.025 257.559 160.106 257.873 160.106C258.16 160.106 258.38 160.052 258.532 159.944C258.693 159.828 258.774 159.68 258.774 159.5C258.774 159.285 258.662 159.128 258.438 159.03C258.214 158.922 257.851 158.806 257.349 158.68C256.811 158.555 256.362 158.425 256.004 158.29C255.645 158.147 255.336 157.927 255.076 157.631C254.816 157.326 254.686 156.919 254.686 156.408C254.686 155.977 254.803 155.587 255.036 155.238C255.278 154.879 255.627 154.597 256.085 154.391C256.551 154.184 257.102 154.081 257.739 154.081C258.68 154.081 259.419 154.314 259.957 154.78C260.504 155.247 260.818 155.865 260.899 156.636H258.774C258.738 156.376 258.622 156.17 258.424 156.018C258.236 155.865 257.985 155.789 257.671 155.789C257.402 155.789 257.196 155.843 257.053 155.95C256.909 156.049 256.838 156.188 256.838 156.367C256.838 156.582 256.95 156.744 257.174 156.851C257.407 156.959 257.765 157.067 258.25 157.174C258.805 157.318 259.258 157.461 259.608 157.604C259.957 157.739 260.262 157.963 260.522 158.277C260.791 158.582 260.93 158.994 260.939 159.514C260.939 159.953 260.814 160.348 260.562 160.697C260.32 161.038 259.966 161.307 259.5 161.504C259.043 161.701 258.51 161.8 257.9 161.8ZM263.422 161.8C263.018 161.8 262.686 161.683 262.427 161.45C262.175 161.208 262.05 160.912 262.05 160.563C262.05 160.204 262.175 159.904 262.427 159.662C262.686 159.42 263.018 159.299 263.422 159.299C263.816 159.299 264.139 159.42 264.39 159.662C264.65 159.904 264.78 160.204 264.78 160.563C264.78 160.912 264.65 161.208 264.39 161.45C264.139 161.683 263.816 161.8 263.422 161.8Z" fill="#333333"/>
<path d="M63.4563 200.005L60.4825 211.413H57.1186L55.2986 203.905L53.4135 211.413H50.0497L47.1571 200.005H50.1309L51.7722 208.309L53.8035 200.005H56.8586L58.8087 208.309L60.4662 200.005H63.4563ZM64.2974 206.862C64.2974 205.931 64.4707 205.113 64.8174 204.409C65.1749 203.704 65.657 203.163 66.2637 202.784C66.8704 202.404 67.5475 202.215 68.295 202.215C68.9342 202.215 69.4921 202.345 69.9688 202.605C70.4563 202.865 70.8301 203.206 71.0901 203.629V202.345H73.8689V211.413H71.0901V210.129C70.8193 210.551 70.4401 210.893 69.9526 211.153C69.4759 211.413 68.918 211.543 68.2788 211.543C67.5421 211.543 66.8704 211.353 66.2637 210.974C65.657 210.584 65.1749 210.037 64.8174 209.333C64.4707 208.618 64.2974 207.794 64.2974 206.862ZM71.0901 206.879C71.0901 206.185 70.8951 205.638 70.5051 205.237C70.1259 204.837 69.6601 204.636 69.1076 204.636C68.555 204.636 68.0838 204.837 67.6938 205.237C67.3146 205.627 67.125 206.169 67.125 206.862C67.125 207.556 67.3146 208.108 67.6938 208.52C68.0838 208.921 68.555 209.121 69.1076 209.121C69.6601 209.121 70.1259 208.921 70.5051 208.52C70.8951 208.119 71.0901 207.572 71.0901 206.879ZM78.6581 199.387V211.413H75.8793V199.387H78.6581ZM86.2134 211.413L83.4508 207.61V211.413H80.6719V199.387H83.4508V206.034L86.1971 202.345H89.626L85.8558 206.895L89.6585 211.413H86.2134ZM95.5587 201.402C95.0711 201.402 94.6703 201.261 94.3561 200.98C94.0528 200.687 93.9011 200.33 93.9011 199.907C93.9011 199.474 94.0528 199.116 94.3561 198.835C94.6703 198.542 95.0711 198.396 95.5587 198.396C96.0353 198.396 96.4254 198.542 96.7287 198.835C97.0429 199.116 97.2 199.474 97.2 199.907C97.2 200.33 97.0429 200.687 96.7287 200.98C96.4254 201.261 96.0353 201.402 95.5587 201.402ZM96.94 202.345V211.413H94.1611V202.345H96.94ZM104.479 202.247C105.541 202.247 106.386 202.594 107.014 203.287C107.653 203.97 107.973 204.912 107.973 206.115V211.413H105.21V206.489C105.21 205.882 105.053 205.411 104.739 205.075C104.425 204.739 104.002 204.571 103.471 204.571C102.941 204.571 102.518 204.739 102.204 205.075C101.89 205.411 101.733 205.882 101.733 206.489V211.413H98.9537V202.345H101.733V203.547C102.014 203.147 102.393 202.832 102.87 202.605C103.347 202.366 103.883 202.247 104.479 202.247Z" fill="#333333"/>
</svg>
